<svg version="1.1" id="Layer_1" xmlns="http://www.w3.org/2000/svg" x="0" y="0" viewBox="0 0 180 216" style="enable-background:new 0 0 180 216" xml:space="preserve"><style>.st0{fill:#da8a65}.st1{fill:#35211a}.st2{fill:#94b3d8}.st3{fill:#2d1d17}.st4{fill:#f2e9ea}</style><path class="st0" d="M108.9 119.4s-.1 18.3-16.6 19.7c0 0-18.1.9-21.2-8.8l-5.5-25s15.6 17.6 26.6 13l20.6-17.7c-.2.1-4.2 16-3.9 18.8zM58.5 89s-2.4-.6-3.7-5.5l-3.6-13 .9-3.3v-.9l.6-.1 1.7.2 1.3.9 1 2.5.7 3.9L58.5 89z"/><path class="st0" d="m63.7 103.2-6.1-14-1.2-25.9c0-.6 3.7-22.6 3.7-22.6l31.7-4.4 13.7-.6 6.6 3.9 5.1 19.1-.6 6.8 2.6-2.3c.6-.5 1.3-.7 2-.6 1.5.2 3.1 1 3.4 4.4.5 5.1-4.1 17-4.1 17l-5.8 4.5-2.5 6.5-7.4 5.5s-5.5 9.7-6.9 10.5c-1.4.8-10.9 3-10.9 3l-11.9.6-11.4-11.4z"/><path class="st1" d="M119.8 54.2c-.7-.2-.5-.9-.4-1.2.3-.9.2-1.7.3-2.6 0-.1.1-.2.1-.6.4 1-.1 1.9.3 2.7 0 .6-.1 1.2-.3 1.7zm-1.5 32.1 2.1-2.2c-.3 1.1-1 1.8-2.1 2.2zM43.6 45.1c.1.2 0 .3-.1.4-.2-.2-.2-.4.1-.4zm76.2 16.7z"/><path class="st0" d="M121.7 72.8c-.2-.1-.2-.3-.2-.4-.2-1.5-.9-2.8-1.3-4.3-.1-.2-.2-.3-.4-.4-.2 0-.3.1-.5.3-.2.3-.3.9-.9.8.5-1.2 1-2.4 2.3-3h.1c-.3.4-.3.7.1 1 .3.3.6.6.4 1.1-.4-.1-.4-.7-1-.7.8 2 1.6 3.7 1.4 5.6z"/><path class="st0" d="M120.8 65.9c0-.1 0-.2.1-.3 1.4-.4 1.6-.2 1.8 1.3v.5c-.1-.2-.4-.4-.4-.6 0-1.2-.7-1.1-1.5-.9z"/><path class="st1" d="M122.7 67.3v-.5c-.2-1.5-.4-1.6-1.8-1.3.3-.6 1-.7 1.5-.9.8 0 1.2.5 1.3 1.2.4 2.1.3 4.1-.4 6.1-.6 1.7-1.2 3.3-1.3 5.1-.1 1.2-.5 2.2-1.3 3.2l-1.5 1.4c0-.2-.1-.4-.1-.6.1-.2.1-.4.2-.6.2-.1.4-.2.5-.5.3-.1.6-.3.8-.6.1.1.1 0 .1-.1.6-.8.8-1.8.9-2.8l.3-2.7c.1-.4 0-.7-.2-1 .2-1.9-.6-3.7-1.3-5.4.7 0 .7.6 1 .7 0 .1 0 .1.1.1 0 .1.1.1.1.2.2.8.3 1.6.4 2.5v2h.2c.8-1.7.8-3.6.5-5.5z"/><path class="st0" d="m119.2 81.8 1.5-1.4c.4.9.1 2.1-.6 2.8-.1.1-.3.3-.5.2-.3-.2-.6-.4-.6-.8.1-.4.2-.6.2-.8z"/><path class="st1" d="M119.8 80.1c0 .3-.2.4-.5.5 0-.4.1-.5.5-.5z"/><path class="st0" d="M118.8 78.9c0-.2.1-.3.3-.3.1.3 0 .4-.3.3z"/><path class="st1" d="M120.6 79.4c.1.1.1.1 0 0-.1 0-.1 0 0 0z"/><path class="st0" d="M122.7 67.3c.3 1.9.4 3.8-.3 5.6h-.2v-2c.2-.6.1-1.3 0-2 0-.3-.1-.6-.5-.5 0-.1-.1-.1-.1-.2h-.1c-.1 0-.1-.1-.1-.1.1-.5-.1-.8-.4-1.1-.4-.3-.4-.7-.1-1 .8-.3 1.4-.3 1.4.8 0 .1.2.3.4.5z"/><path class="st0" d="M121.7 68.4c.4-.1.5.3.5.5 0 .7.2 1.3 0 2l-.5-2.5z"/><path class="st2" d="M121.5 68.2z"/><path class="st3" d="M124.6 67.1c-.2-3.1-1.5-4.4-4.3-4.8-.1.6-.7.6-1.2 1.1.6-3.2.5-6.2.7-9.2-.7-.2-.5-.9-.4-1.2.3-.9.2-1.7.3-2.6 0-.1.1-.3.1-.6.4 1-.1 1.9.3 2.7.2-1.3.5-2.6.1-3.9-.5-1.9-.2-3.7 0-5.5.2-1.6.4-3.2 0-4.8l-1.3-5.5c-.6-2.4-1.9-4.3-3.8-5.7-1.6-1.2-2.9-2.6-3.3-4.5-.6-2.4-2.6-3.4-4.3-4.5-1.4-.9-3.2-1.1-5-1.2-.9 0-1.8-.1-2.2-1.1-.2-.3-.5-.4-.9-.4s-.8 0-1.3.1c-.2.3-.5.3-.8.1-.6.2-1.1.1-1.6 0-.3.2-.6.3-.8-.1-.2 0-.5 0-.7-.1-.3.2-.6.2-.9 0-.3.2-.7.2-1 0-.1.2-.2.5-.4.4-.8-.4-1.8-.1-2.6-.5-.6-.3-1.3-.2-2-.4-.3-.1-.7 0-.8-.5-.4 0-.8.1-1.2-.1-.2.2-.3.1-.4-.1-1.8-.1-3.6.2-5.4 0-1.4-.2-2.8-.1-4.2-.1v.2c-.9.2-1.7.9-2.7.6l-1.3.6c0 .3-.1.3-.4.2-.1 0-.2.1-.2.1.1.5-.2.3-.4.3-.6.5-1.3.6-2 .7-.1.5-.5.5-.8.6-.5.2-.9.4-1.2.8-.6.8-1.4.7-2.2.7-.1.1-.3.1-.4.2-.2.5-.7.3-1 .5-1 .7-1.6 1.8-2.7 2.4-.2 1.7-2.1 1.5-3 2.6-.1.1-.2-.1-.2-.2-1.7 1.7-3.1 3.5-4.6 5.3L49.6 33l-2.1 2.3c-1.5 1.7-2.3 3.8-3.3 5.8-.1.6-.5.9-.8 1.3.7.3.1.9.4 1.3.1.1 0 .3-.2.3l-.3.9c.1.2 0 .3-.1.4s-.1.2-.2.3c-.9 1.2-1.4 2.6-1.9 4-.2.5 0 .8.4 1s.6-.1.9-.3c1.1-.7 1.4-2.3 2.9-2.5-.1-.4-.7-.4-.4-.8.2-.3.4-.3.7-.4.8-.3 1.7-.4 2.5-.7.2-.2.4-.3.6-.5.4-.5 1-.8 1.6-1.2 0 .6-.2 1-.4 1.5 0 .1-.1.2-.1.2 0 .2-.1.3-.3.4 0 .2-.1.3-.1.5 0 .4-.2.6-.5.8-.2.9-.9 1.6-1.2 2.4-.7 1.4-1.6 2.8-2.1 4.3-.4 1.3-.8 2.5-1.5 3.7 0 .5 0 1-.2 1.5 0 .3 0 .5-.1.7.5-.6.8-.6 1.1.2.2.5.5.1.7-.1.8-.8 1.1-1.9 1.5-3 .4-1.2.9-2.4 1.7-3.5.3.4 0 .6-.1.7-1.1 2-1.7 4.3-2.7 6.3-.1.2-.4.6 0 .7.3.1.4-.3.5-.5l2.3-5.1c.3-.6.7-1.1 1.3-1.5 0 .7-.6 1.2-.7 1.9l.2.2c.6-.8 1.1-1.6 1.2-2.6h-.2c-.1-.3.2-.5.3-.7v.5c.5.1.4-.7 1.1-.6-.2.7-.6 1.3-1 1.9-.9 1.5-1.8 3.1-2.2 4.8l.1.1c.7.3.7-.7 1.3-.7 1.3-1 1.7-2.7 2.8-4 0 1.4.1 2.5.2 3.7.2 2.2.5 4.4 1.1 6.5.1.2.4.5.1.7s-.6-.1-.8-.2c-.3-.1-.3-.4-.4-.6-1.6.8-2.4 2.2-2.2 4 .1 1.8.4 3.6 1.1 5.4.5 1.3 1.1 2.6 1.4 4 .4 2.2 1.1 4.4 1.9 6.5.2-.3 0-.5 0-.8 0-.2-.3-.7.5-.5.3.1 1-.4 1.1-1.1-.1 0-.1-.1-.2-.2-1-1-1.4-2.2-1.8-3.5-.4-1.1-1-2.3-1.1-3.4-.2-1.8-1.2-3.4-1.2-5.2 0-.3 0-.6.1-.8-.3-.6.2-1.1.3-1.7l-.2-.2c-.4.1-.8 0-.8-.6 0-.4.3-.8.7-.7.7.2 1.5.2 2.2.7.1.1.3.2.2.4.7.6.8 1.4 1 2.3-.8-.7-1.4-1.6-2.5-1.8 0 .1-.1.2-.1.3 2 1 3 2.7 3.3 4.9.1.7.1 1.5 0 2.2.1.3.1.6 0 .8h-.1c-.2-.3-.1-.9-.7-.7-.4.1-.7.9-.5 1.4.1.2.3.5.1.8.1.1.2.3.3.4.2 0 .2.1.1.2.1.1.2.2.2.4.2 0 .2.1.1.2.2.2.2.4.2.7.8 1.3 1.4 2.8 1.5 4.4.1 1.1.4 2.2.4 3.4-.8-.3-1.1-.2-1.1.5.1.1.2.2.2.3h-.1c-.1-.1-.1-.2-.2-.3-.7-.6-1.1-1.4-1.5-2.2-.1-.2-.1-.5-.4-.5.2.6.4 1.1.7 1.6.4.8 1.1 1.5 1.5 2.3.9 1.6.9 3.5 1.1 5.3.6 4 1.7 7.8 4 11.2.3.5.6 1 .8 1.5l2.3 3.5c.2.1.4.4.5.6.5 1.2 1.6 2 2.1 3.2 0 .1.2.1.4.1-.1-.2-.1-.4-.2-.7-.2 0-.2-.2-.2-.4l.1-.1c.2.1.2.3.1.4.4 0 .4.3.5.5 0 .2-.2.2-.3.2-.1.6.5.8.7 1.2.2.3.4.4.1.7-.4.5 0 .6.4.5.6-.1 1.2.1 1.7.5.9.8 2.2 1 2.8 2.1h.1c1.2.9 2.7 1.3 3.8 2.5.2.2 1 1.2 1.6.1.1-.2.4-.1.5.1.7.7 1.6.8 2.5 1 .3.1.6.1.8.3.4.4.8.5 1.3.2.2-.2.5-.2.6 0 .4.7 1.1.6 1.7.8.3-.1.5-.1.7-.2-.1-.1 0-.2.1-.2s.2-.1.2.1c.8.1 1.3-.4 2-.7.4-.2.8-.2 1.2 0 .2-.1.4-.1.6-.2-.1 0-.1-.1-.1-.2.1-.1.1-.1.2 0 .1-.2.3-.3.5-.3.1-.1.3-.1.4 0 .2-.1.4-.2.6-.2 0-.2.1-.2.2-.2l.6-.3c.3-.6 1-.5 1.4-.8.8-.3 1.2-1.2 2-1.6.4-1.1 1.3-1.8 2.1-2.5 1.4-1.2 3.1-2.1 4.3-3.7 1.2-1.6 2.9-2.8 4.2-4.3.3-.3.5-.8.8-.8s.6-.1.8-.3l1-1.8c.1-.5.3-.9.6-1.4.6-1.1 1.2-2.3 1.5-3.6s.6-2.6 1-3.9c.8-2.6 1.6-5.1 1.6-7.8 0-1.4.5-2.5 1.7-3.3.2-.1.4-.2.4-.5-.6.4-1.4.4-1.5 1.3 0 .2-.2.3-.4.2-.2 0-.4-.2-.4-.4.2-.9-.3-1.7.1-2.6.3-1.6.6-3.1.7-4.7-.3-.5.3-.8.1-1.3-.3-.6 0-1.3 0-1.9.2-1.5.2-3.1.2-4.6-.1-.3-.1-.6 0-.9-.1-1.1.7-1.9 1.2-2.7.5-1.2 1-2.4 2.3-3 0-.1 0-.2.1-.3-.8 0-1.2.7-1.7 1.2-.2.2-.4.5-.6.7-.1.6-.4 1.2-.9 1.7 0 .1 0 .2-.2.2 0 .2 0 .4-.2.5-.1-.3-.1-.4.2-.5 0-.1 0-.2.2-.2-.8-.8-.4-1.6 0-2.3.3-.6.6-1.4 1.3-1.7 0-.2.1-.4.3-.5.1-.5.2-.5.8-.9 1.2-.8 2.8-.4 3.4.8.9 1.6 1.1 3.4.8 5.2-.4 2.1-.9 4.2-1.5 6.2-.5 1.6-.8 3.3-1.1 4.9-.1.6-.2 1.3-.6 1.8-.1.2-.1.3.1.4.5-.5.7-1.2.8-1.9.4-2.4 1-4.7 1.6-7 1-1.7 1.6-4 1.5-6.4zm-74-12.6c0-.2.1-.3.2-.3 0 .2 0 .3-.2.3zm1.6-1.1s0-.1 0 0c.1-.1.1-.1 0 0 .1-.1.1 0 0 0zm.5 20.6c.6 2.2 1.7 4.2 1.8 6.6l-2-6.5s.1-.1.2-.1zm-.3-.3zm3.1-30.8c0 .3-.1.5-.3.5 0 .2-.1.4-.3.5 0 .1 0 .3-.1.3 0 .1 0 .2-.2.1v.2h-.1s.1-.1.1-.2.1-.2.2-.1c0-.1 0-.3.1-.3 0-.2.1-.4.3-.5 0-.3.1-.4.3-.5.2-.1.1 0 0 0zm.7-.9c0 .2 0 .3-.1.4-.1.1-.1.3-.3.3.1-.1.1-.3.3-.3-.1-.2-.1-.3.1-.4 0-.1.1-.2.2-.3v.1c0 .1-.1.2-.2.2zm.4-.5c0-.3.1-.4.3-.5 0 .3-.1.4-.3.5zm55.2 8.7c.4.3.6.7.6 1.2-.2-.4-.6-.7-.6-1.2-.1 0-.2-.1-.2-.2.2.1.2.1.2.2zm-.2-.2c.1-.1 0 0 0 0zm-.6-20.6V32c-.4-.3-.4-1.5 0-2.6zm-3 9.1c-.6.4-1.1-.1-1.8 0 .8-.7.8-.7 1.8 0zm-10.1.4c-.5.3-.9.3-1.4.3.4-.3.8-.4 1.4-.3zm-40.7 1.9c0-.1-.1-.1 0 0l.1-.2h.1l-.2.2zm.3-.5c-.1-.1-.1-.1 0 0 0-.1 0 0 0 0zm0-.1.2-.2s0-.1.1-.1c.1.1 0 .1-.1.1 0 .1-.1.2-.2.2zm12.2 74.9v-.2c.1 0 .1 0 0 .2zm20.8-13.2c.7.8 1.5 1.3 2 2-.6-.7-1.9-.6-2-2zm5.4 5.4zm-1 .2c-.8.1-.8.1-1.3.5-.1 0-.1.1-.1.2-.3-.8-1.1-.4-1.5-.6-.5-.3-.3-1 0-1.6 0 .3.1.5.1.7.2 0 .2-.1.2-.1 0-.4.1-.7.6-.4.3.2.5 0 .5-.4.1-.3.3-.6.7-.2.1.1.2.2.4.1.7-.3 1.2.1 1.4.7.1.4-.4 1-1 1.1zm-1.3-4.8c1.1.6 1.1.6.4 1-.1-.2-.1-.4-.2-.5-.1-.2-.2-.3-.2-.5zm3.2 1.9c-.8 0-.7-.7-.9-1.2-.1-.2.1-.3.3-.3.5.1 1 .3.9 1 0 .2.1.5-.3.5zm1.4-2.1s0-.1 0 0c0-.1 0-.1 0 0 0-.1.1-.1 0 0zm1.3-1.4c.1 0 .1.1 0 0 .1.1.1 0 0 0zm.3.3zm-.6-.2c-.1.3-.7.1-1 .4-.1.1-.3.1-.4.4.1 0 .2.1.1.2s-.1 0-.2-.1c-.2.2-1-.4-.7.6 0 .1-.2.1-.2.1-.3-.1-.6-.2-.6-.5s-.1-.5-.3-.4c-.4.1-.9-.4-1.3-.4-.2 0-.4.1-.6.5.2.5-.3.4-.6.6-.2.2-.6-.1-.7-.3-.4-1.4-1.4-1-2.4-.9-1.1.1-2.2.1-3.3.1-1.8.1-3.6 0-5.3.4-.4.1-.7.5-.7.9 0 .5.1.9.4 1.3.2.2.5.1.7-.1.3-.3.7-.3 1-.1s0 .5 0 .8c-.2.6-.3 1.2-.7 1.7-.1.2-.1.9-.6.2-.1-.1-.2.1-.2.2-.4.9-1.4.7-2.1 1-.2.1-.3 0-.4-.3-.1-.6-.4-1.2-1.1-1.2-.2 0-.3-.2-.4-.4-.1-.5-.3-.9-.8-1.1-.2-.1-.2-.4-.3-.6-.3-.4 0-1.3-.9-1.2-.2 0-.1-.2-.1-.4-.1-.6-.1-1.3-.9-1.4l-.1.1-.1-.1s.1 0 .1-.1c-.1-.4 0-.8-.3-1.1-.8-1-.3-3 .8-3.6.5-.2 1-.1 1.4.3 1 .8 2.1 1.6 3.1 2.4.6.5 1.3.4 2 .5-.4-.3-.8-.6-1.2-1-.2-.3-.6-.6-.4-1s.7-.5 1.1-.6c2-.5 4-.2 6.1-.5l1.4-.3c.5-.1 1-.3 1.6.1.2.2.6.2.9.1 1-.2 2-.1 3-.1.6 0 .8.3 1.2.5.3.1 0 .4-.1.6-.2.6-.9.7-1.5 1.2.9-.1 1.5-.3 2.1-.7.7-.5 1.4-1.2 2.4-1.2l.3-.3c.4-.5.9-.5 1.4 0 .4.2.3.6.4.9.3.3.4.6 0 .8-.1.4.2.7 0 1.1.3.2.6.4 1 .7-1.2 0-1.7.4-2 1.3zm-14.1-6.8c-.2 0-.5 0-.6-.2-.1-.3.1-.4.3-.6 1-1.2 1.2-1.1 2.9-.5.8.2 1.3.9 2 1.1.3.1.4.3.1.5-.6.5-2.7.6-3.5.2.2-.3.9.1.9-.5-.7-.2-1.4 0-2.1 0zm27-2.5c-.1-.1-.1-.2 0-.2v.2c0-.1 0-.1 0 0zm4.1-13.3c-.4 2.3-.6 4.7-1.1 7-.4 1.5-.7 3.1-1.2 4.6-.4 1-.5 1.1-1.5.8-.3-.1-.2.5-.5.2 0 .7-.5.5-.9.4-.2.2.2.5-.1.6 0 .1-.1.1-.1.2l-.1-.1c0-.1.1-.1.1-.2-.4-.4-.8 0-1 .2-.5.6-1.4.8-1.3 1.7-.8-.2-.5 1.1-1.3 1-.3 0-.3.3-.2.7-.2-.6-1-.5-1.3-1-.1-.2-.3-.3-.3-.5.1-.5-.1-1-.5-1.4-.1-.1-.3-.3 0-.5-.5-.7-1.1-1.3-1.3-2.2-1.6.1-2.4-1.6-3.9-1.8-.8-.1-1.6-.6-2.5-.5-.2 0-.4 0-.5-.2-.3-.5-.9-.5-1.3-.3-.5.1-1 0-1.5-.1-.3-.1-.7-.5-1.1 0-.1.1-.6-.1-.8-.3-.7-.7-1.5-.7-2.3-.2-1.2.9-2.5.4-3.8.4-.4 0-.7-.4-1-.7-1-1-2.2-1.6-3.7-1.5-.4 0-.8.1-1.2.3-.7.4-1.3.1-1.4-.7-.3-1.3.7-3.3 1.8-4 .7-.4.8 0 1 .6.1.4 0 1.1.6 1 .5-.1.3-.7.3-1.2.1-1.1.3-2.2.7-3.2.3-.8.4-1.6.4-2.5-.1-1.3 0-2.6 0-3.9-.1-2.1-.5-4.2-1.5-6.1-.2-.4-.4-.7-.3-1.2-.6-.7-1.3-1-2.2-1.3-1.8-.6-3.6-.9-5.4-1.2-.9-.1-1.7-.5-2.6-.7-1.4-.4-2.8-.5-4.2 0-2.8 1.1-4.8 3.1-5.4 6.2v.2s0 .1.1.2c1.6-.9 3-2.1 4.7-2.7 1.8-.6 3.6-.4 5.4-.2s3.5.7 5.2 1.3v.2c-.5-.1-1-.2-1.5-.2-2.6-.2-5.1.1-7.6.8-1.5.4-2.5 1.4-3.7 2.2-.4.3-.2.7.1 1 .4.4.8 1 1.6.5.4-.3 1 .2 1.5 0 1.1-.4 2.1-.3 3.2.2.2.1.5.1.7 0 .6-.1 1.2-.2 1.8.2.1.1.4.1.6 0 1-.5 2.2-.3 3.2-.6.7-.2 1.3 0 1.9.3-.4.2-.8.5-1.3.6-.4.1-.4.4-.3.7.1.3.3.3.6.1.7-.4 1.5-.8 1.8-1.7.1-.3.5-.5.7-.5.4 0 .2.5.2.7s0 .4-.1.7c-.1.3.1.6.4.7s.4-.1.4-.4c.1-.2.2-.3.4-.2.2 0 .2.2.2.4-.3 1.5.1 3-.2 4.5-.4 1.8-.6 3.5-2.3 4.8-1.2.9-1.5 2.3-1.2 3.9.1.7.5 1.2 1.2 1.4.4.1.8.3 1.2.5.2.1.4.2.4.4 0 .3-.3.4-.5.4-1.3.1-2.4.7-3.6.8-1.3.1-2.1 1.1-3.2 1.3-.6-1.4.7-2.1 1.3-3.1.3-.6 1-.9 1.3-1.5-.3-.2-.4 0-.6.1-.9.8-1.8 1.7-2.5 2.8-.5.8-1 1.6-1.9 2.2-.9.6-1.4 1.6-1.8 2.6-.4 1.1-.8 2.2-1.4 3.2-.5.7-1.2.8-1.6.1-.6-1-1.3-1.8-2.2-2.4-.2-.1-.4-.3-.5-.2-1 .6-1.6-.4-2.4-.4-.4 0-.6-.4-.7-.7-.8-2.3-1.4-4.6-1.4-7.1 0-1.3.4-2.7.6-4 .1-.3 0-.6-.1-.9-.3-1.3-.9-2.6-.9-4 0-.5-.4-.8-.4-1.3 0-.1-.1-.2-.2-.2-.2 0-.2.1-.2.3 0 1.5-.2 3.1.3 4.6.4 1.4.7 2.8.4 4.3-.4-.4-.1-.9-.2-1.4-.2-2-.9-3.9-1.1-5.9-.2-1.9.2-3.7.2-5.5.2-2.8-.1-5.6.3-8.4.2-1.2.7-2.3 1.3-3.3.7-1.1 1.5-2.1 1.9-3.3.8-2.1 1-4.3.8-6.5-.1-1 .1-1.8.8-2.6 1.1-1.2 2-2.7 3.2-3.8 1.5-1.4 3.3-1.8 5.2-1.8 1.1-.2 2.2-.3 3.3-.5.1-.2.2-.1.3 0 .3-.1.7-.1 1-.2.1-.1.1-.1.2 0 .4-.1.7-.1 1.1-.2.1-.1.1-.1.2 0 .5-.1 1-.1 1.5-.2 1.4-.4 2.9-.5 4.3-.8.5-.1 1 .2 1.6.1.9-.2 1.9.3 2.7-.5.3-.2 1-.5 1.5 0 .3.3.7.1 1 0 1.5-.2 3 .1 4.4-.4.2.3-.1.5-.2.7.9.1 1.9.1 2.8.2h.1c.3-.2.7-.1 1.1-.2.1-.6.7-.4 1.1-.6.4-.2.9-.2 1.4-.4 0 .4-.5.3-.6.8.9-.3 1.9.1 2.8-.6.4-.3 1.3-.1 1.5.5.1.3.3.3.6.4 1.6.4 2.8 1.2 3.2 2.9.1.5.5.8.7 1.2.3.8.4 1.7.2 2.4-.2.6 0 .9.2 1.4.1.1.1.3 0 .3-.7.1-.5.7-.4.9.5 1.3.4 2.7.3 4.1-.1 1.2.4 2.2 1.2 2.8 3.2 2.2 3.9 5.5 4.3 9.1.3 2.9.6 5.9 1.2 8.7.8 1.8.6 3.6.3 5.3zM75 66.9c-1.9-.4-3.8-.4-5.5.6-.4.2-.8.3-1.2.5-.1 0-.3.1-.3-.1-.1-.2 0-.2.2-.3.8-.6 1.7-.9 2.6-1.1 1.9-.2 3.9-.4 5.7.5.1 0 .2.1.2.2l.1.1v-.1c-.1 0-.2 0-.2-.2-.7.2-1.1 0-1.6-.1zm-.1 2.3c-.1-.3-.1-.5-.3-.7-.2-.2-.1-.4 0-.6l.2-.1c.2.1.3.3.3.5.1.4-.1.6-.2.9zm-2.3-.8c0 .4-.1.8-.2 1.3-.4-.5-.5-.9-.5-1.3 0-.2.1-.4.4-.4.3-.1.3.2.3.4zm-1.7.3c.1.4.2.9.4 1.2.1.1.3.2.2.4s-.3.1-.5.1c-.5-.3-1.3-.3-1.8-.7-.3-.3-.3-.5-.1-.7.3-.3.6-.5.9-.7s.5-.5.8-.4c.4.2 0 .6.1.8zm4.6 1.4c.5-.4.6-1 .6-1.6 0-.4.2-.5.6-.2.2.2.4.4.7.5.3.2.6.6.5.9-.1.4-.5.3-.8.4-.4.1-.9.3-1.4.4-.3 0-.4-.2-.2-.4zm41.1-6.8V61c.2.7.1 1.5 0 2.3z"/><path class="st1" d="M48.3 59.7c.4-.8.3-1.7 1-2.3.1.3 0 .5-.1.7-.3.5-.5 1-.3 1.6.1.2 0 .6-.4.6-.1-.2-.1-.4-.2-.6z"/><path class="st0" d="M116.4 73.4c-.6-2.9-.9-5.8-1.2-8.7-.3-3.6-1-6.9-4.3-9.1-.9-.6-1.3-1.6-1.2-2.8.1-1.4.3-2.8-.3-4.1-.1-.3-.3-.8.4-.9.1 0 .1-.2 0-.3-.3-.4-.4-.7-.2-1.4s.1-1.6-.2-2.4c-.2-.5-.6-.7-.7-1.2-.4-1.7-1.6-2.6-3.2-2.9-.3-.1-.5-.1-.6-.4-.2-.5-1.1-.8-1.5-.5-.9.7-1.8.3-2.8.6 0-.5.6-.4.6-.8-.5.2-1 .2-1.4.4-.4.2-.9 0-1.1.6-.4.1-.8-.1-1.1.2 0 .1 0 .1-.1.1v-.1c-.9-.1-1.9-.1-2.8-.2-.1 0-.3.2-.4.1-1.7-.6-3.3.2-5 0-1.2 0-2.2.3-3.2.7-.7.2-1.2-.8-1.4-.3-.3.7-.8.7-1.3.6-.5 0-1 0-1.4-.2-.9-.3-1.9.2-2.8-.1-.5.1-1 .1-1.5.2l-.1.1-.1-.1c-.4.1-.7.1-1.1.2l-.1.1-.1-.1c-.3 0-.7.1-1 .2-.1.2-.2.2-.3 0-1.1.2-2.2.3-3.3.5-2-.1-3.8.4-5.2 1.8-1.2 1.1-2.1 2.6-3.2 3.8-.7.8-.9 1.6-.8 2.6.2 2.2 0 4.4-.8 6.5-.4 1.2-1.2 2.2-1.9 3.3-.6 1-1.1 2.1-1.3 3.3-.4 2.8-.2 5.6-.3 8.4-.1 1.8-.4 3.7-.2 5.5.2 2 .9 3.9 1.1 5.9.1.4-.2 1 .2 1.4.2-1.5 0-2.9-.4-4.3-.5-1.5-.3-3.1-.3-4.6 0-.1.1-.3.2-.3s.2.1.2.2c-.1.5.4.9.4 1.3 0 1.4.6 2.7.9 4 .1.3.1.6.1.9-.2 1.3-.6 2.7-.6 4 0 2.4.6 4.8 1.4 7.1.1.3.3.7.7.7.9 0 1.5.9 2.4.5.1-.1.4.1.5.2 1 .6 1.7 1.5 2.2 2.4.4.7 1.1.6 1.6-.1.7-1 1-2.1 1.4-3.2.4-1 .9-2 1.8-2.6.9-.6 1.4-1.4 1.9-2.2.7-1.1 1.5-2 2.5-2.8.1-.1.3-.3.6-.1-.3.6-1 1-1.3 1.5-.6 1-1.9 1.8-1.3 3.1 1.1-.2 1.9-1.2 3.2-1.3 1.2-.1 2.4-.8 3.6-.8.2 0 .5-.1.5-.4s-.2-.4-.4-.4c-.4-.2-.8-.4-1.2-.5-.7-.2-1.1-.7-1.2-1.4-.3-1.5 0-3 1.2-3.9 1.7-1.2 1.9-3 2.3-4.8.4-1.5 0-3 .2-4.5 0-.2 0-.4-.2-.4s-.3 0-.4.2c-.1.2-.1.5-.4.4s-.5-.3-.4-.7c0-.2.1-.4.1-.7 0-.2.2-.7-.2-.7-.2 0-.6.2-.7.5-.3.9-1 1.3-1.8 1.7-.3.1-.5.2-.6-.1-.1-.3-.1-.6.3-.7.4-.1.8-.4 1.3-.6-.7-.3-1.3-.5-1.9-.3-1.1.3-2.2.1-3.2.6-.2.1-.4 0-.6 0-.6-.4-1.2-.3-1.8-.2-.2.1-.5.1-.7 0-1-.5-2.1-.6-3.2-.2-.5.2-1.1-.3-1.5 0-.8.5-1.2-.1-1.6-.5-.3-.2-.4-.6-.2-.9l.1-.1c1.1-.9 2.2-1.8 3.7-2.2 2.5-.7 5-1 7.6-.8.5 0 1 .1 1.5.2v-.2c-1.7-.6-3.4-1.1-5.2-1.3-1.8-.2-3.7-.4-5.4.2-1.7.6-3.1 1.8-4.7 2.7-.1-.1-.1-.2-.1-.2v-.2c.6-3.1 2.5-5.1 5.4-6.2 1.4-.5 2.8-.4 4.2 0 .9.2 1.7.6 2.6.7 1.8.3 3.7.6 5.4 1.2.9.2 1.6.6 2.2 1.3-.2.4.1.8.3 1.2 1 1.9 1.4 3.9 1.5 6.1v3.9c.1.9-.1 1.7-.4 2.5-.4 1-.6 2.1-.7 3.2 0 .4.2 1.1-.3 1.2-.6.1-.5-.6-.6-1-.1-.5-.3-.9-1-.6-1.1.7-2.1 2.6-1.8 4 .1.8.8 1.1 1.4.7.4-.2.8-.3 1.2-.3 1.5-.1 2.7.5 3.7 1.5.3.3.6.7 1 .7 1.3 0 2.6.5 3.8-.4.7-.5 1.6-.5 2.3.2.2.2.7.4.8.3.4-.6.7-.1 1.1 0 .5.1.9.2 1.5.1.5-.1 1-.1 1.3.3.1.2.3.2.5.2.9-.1 1.7.4 2.5.5 1.5.2 2.3 1.9 3.9 1.8.4 0 .6-.5.5-.6-.3-.5-.3-1-.6-1.4-1-1.2-1.8-2.4-3.1-3.4-.9-.7-1.6-1.5-2.5-2.1-.9-.7-1.9-1.3-2.9-1.9-.9-.5-1.6-1.2-2.3-2-.4-.4-.2-1 .3-1.1 1-.2 1-1 1.4-1.6.2-.5.5-.7 1-.6s1.1.3 1.5.6c1.4 1 3 1.1 4.7.8 1-.2 1.9-.7 2.7-1.3.5-.4 1.1-.7 1.6-.8 1.1-.2 2.2-.6 3.3-.1 1.1.4 1.5 1.4 1.7 2.3.2.8.3 1.6.4 2.4.1 1.2-.9 1.8-1.3 2.7-1 1.8-2.6 3.3-2.6 5.6 0 .5-.2 1.1-.5 1.5-.5.5-.6 1.1-.2 1.6.4.6 1.1.6 1.7.5.4-.1.7-.2 1-.3s.7 0 .8.3-.2.4-.4.6c-.5.4-1 .8-1.2 1.4-.2.5-.9.6-1.1 1.1-.4-.4-.9 0-1.3-.4-.4-.5-.7-1.1-1.3-1.5-.3.2-.1.4 0 .5.4.4.5.8.5 1.4 0 .3.2.4.3.5.3.5 1.1.4 1.3 1-.1-.3-.1-.7.2-.7.8 0 .5-1.2 1.3-1 0-.9.9-1.2 1.3-1.7.2-.2.5-.7 1-.2h.1c.3-.2-.1-.4.1-.6.4.1.9.3.9-.4.3.3.2-.3.5-.2 1 .3 1.2.2 1.5-.8.6-1.5.8-3 1.2-4.6.5-2.3.8-4.7 1.1-7 0-1.8.2-3.6-.1-5.3zM65.3 78c.5-1.1 1.2-1.6 2.3-1.8 1-.1 1.9-.1 2.9.5 1.1.6 2.3 1 3.5 1.3.4.1.8-.3 1.2-.4 1.3-.5 1.8-.2 1.7 1.1 0 .7.2 1 .8 1.2.8.3.9.5.2 1.1-2.3 1.8-3.9 4.2-5.7 6.4-.1.1-.2.2-.2.3-.1 1.8-1.7 2.4-2.5 3.8-.3-.4-.3-.7-.1-1 .4-.6.1-1.1-.4-1.4-1.2-.7-2-1.7-2.8-2.8-1.7-2.5-2.3-5.2-.9-8.3zm16.3 6.2c-.2.3-.7.1-.9.2-.6 0-1.1.1-1.4-.4-.2-.3-.2-.7 0-1 .4-.6.9-.7 1.4-.2.2.1.3.3.4.5.3.2.7.5.5.9zm15.9-.3c.1-.1.3 0 .4.1 1.8 1.3 3.2 2.9 4.5 4.6.1.1.1.3.1.4.3.1.4.3.3.7 0 0 .1 0 .1.1-.1.1-.1 0-.1 0-.2-.2-.4-.4-.4-.7-1.3-1.6-3-2.8-4.5-4.3l-.4-.4c0-.2-.1-.4 0-.5zm-1.2 2.4c.8-1 1.5-.9 2.8.1.6.4.7 1.1 1.3 1.5.1 0 .1.2 0 .3-.1.2-.2.1-.4 0-.9.1-1.5-.7-2.4-.9-.4-.1-.7-.3-1.1-.3-.2 0-.4 0-.5-.3-.1-.2.1-.3.3-.4zM93 79.9c.9.7 1.8 1.3 2 2.6.2 1.5-.3 2.5-1.5 3.3-.4.3-.9.3-1.5 0-1.3-.5-2.6-.5-3.8.3-.2.1-.4.5-.6.2-.2-.2.1-.4.2-.6 1.1-1.5 2.8-1.8 4.5-.9.5.3 1.1.6 1.6.2.6-.4.8-1 .7-1.7-.1-1.1-.6-1.8-1.4-2.5-.3-.2-.5-.5-.8-.7.3-.3.5-.3.6-.2zm.1 3.6c0 .3-.1.6-.5.5-.6-.1-1.1-.1-1.6-.2-.4-.1-.7-.4-.3-.8.1-.1.1-.2.2-.3.2-.4.4-.9 1-.8.5 0 1.2 1 1.2 1.6zm10.5-11.4c-.9.4-1.7.7-2.7.7-.9 0-1.8.1-2.9.2-1.2.1-2.5-.6-3.8-1-.2-.1-.3-.2-.3-.5 0-.2.3-.4.4-.3.7.2 1.6-.2 2.3.5.1.1.3.2.5.2 1.1-.5 2 .2 2.9.4.9.2 1.8-.4 2.7-.6.2 0 .4-.3.6-.3s.5-.1.6.2c.1.2-.1.4-.3.5zm4.1-3.3c-.1.1-.3.2-.5.1s-.4-.3-.6-.3c-.3-.1-.6 0-.7.3-.1.2.4.5.1.5-.6 0-1 .7-1.6.5-1.5-.5-2.9 0-4.4.1-.9 0-1.8 0-2.6-.3-.5.3-1-.2-1.6 0-.1.2-.3.3-.5.3-.7.1-1.4-.1-2.1.2-.5.2-.8.1-.8-.6 0-.2.1-.7-.4-.6-.4.1-1-.3-1.1.6 0 .3.1.7-.2 1.1-.2-.6-.4-1-.5-1.5-.1-.4-.2-.8-.6-1.1-.5-.4 0-1.1.9-1.4 1-.3 1.9-.8 3.1-.7.4 0 .9-.4 1.3-.5 2-.5 3.9-.5 5.9-.5 2.3.1 4.3 1.1 6.2 2.3.4.2.6.8.9 1.2-.1 0-.1.2-.2.3zm2.9-3.1c-.3.3-.5-.1-.7-.1-1.1-.2-2.1-.8-3-1.4-.5-.3-1-.4-1.5-.1.2.6 1 .2 1.3.8-.7 0-1.5-.2-2.2-.4s-1.4-.2-2.1-.2c-.8 0-1.5-.1-2.3-.2-.5 0-.5-.3-.6-.6-1.7.1-3.2.7-4.8 1.1-1.8.5-3.4 1.4-5.2 1.8-1.1.2-1.5-.1-1.3-1.3v-.5c0-.2.1-.4.1-.6.1-.8.8-1.3 1.6-1.1.2 0 .3-.1.5-.2.2-.6.8-.7 1.3-.8 1.7-.6 3.4-1.2 5.1-1.7.7-.2 1.4-.9 2.2-.3.1 0 .2-.1.4-.1.2-.6.6-.5 1-.3 2.1-.4 4 .1 5.9 1.1.1.1.2.1.3 0 .2 0 .3.1.3.4 1.4.9 2.6 1.9 3.4 3.4.1.2.3.4.3.7 0 0 .2.3 0 .6z"/><path class="st0" d="M103.6 90.3c.4 0 .6-.5.4-.6-.3-.5-.2-1-.6-1.4-1-1.2-1.8-2.4-3.1-3.4-.9-.7-1.6-1.5-2.5-2.1-.9-.7-1.9-1.3-2.9-1.9-.9-.5-1.6-1.2-2.4-2-.4-.4-.2-1 .3-1.1 1-.2 1.1-1 1.4-1.6.2-.5.5-.7 1-.6s1.1.3 1.5.5c1.4 1 3 1.1 4.7.8 1-.2 1.9-.7 2.7-1.3.5-.4 1.1-.7 1.6-.8 1.1-.2 2.2-.6 3.3-.1 1.1.4 1.5 1.4 1.7 2.3.2.8.3 1.6.4 2.4.1 1.2-.9 1.8-1.3 2.7-1 1.8-2.6 3.3-2.6 5.6 0 .5-.2 1.1-.5 1.5-.5.5-.6 1.1-.2 1.6.4.6 1.1.6 1.7.5l1-.3c.3-.1.6 0 .8.3.1.3-.2.4-.4.6-.5.4-1 .8-1.2 1.4-.2.5-.9.6-1.1 1.1-.4-.4-.9 0-1.3-.4-.4-.5-.7-1.1-1.3-1.5-.3-.7-.9-1.3-1.1-2.2zM94 101.9c.2.5-.3.4-.5.6s-.6-.1-.7-.3c-.4-1.4-1.4-1-2.4-.9-1.1.1-2.2.1-3.3.1-1.8.1-3.6 0-5.3.4-.4.1-.7.5-.7.9 0 .5.1.9.4 1.3.2.2.5.1.6-.1.3-.3.7-.3 1-.1s0 .5 0 .8c-.2.6-.3 1.2-.7 1.7-.1.2-.1.9-.6.2-.1-.1-.2.1-.2.2-.4.9-1.4.7-2.1 1-.2.1-.3 0-.4-.3-.1-.6-.3-1.2-1.1-1.2-.2 0-.3-.2-.3-.4-.1-.5-.3-.9-.8-1.1-.2-.1-.2-.4-.3-.6-.3-.4 0-1.3-1-1.2-.2 0-.1-.2-.1-.4-.1-.6-.1-1.3-.9-1.5-.1-.4 0-.8-.3-1.1-.8-1-.3-3 .8-3.6.5-.2 1-.1 1.4.3l3.1 2.4c.6.5 1.3.4 2 .5-.4-.3-.9-.6-1.2-1.1-.2-.3-.6-.6-.4-1s.7-.5 1.1-.6c2-.5 4-.2 6-.5l1.4-.3c.5-.1 1.1-.3 1.6.1.2.2.6.2.9.1 1-.2 2-.1 3-.1.6 0 .8.3 1.2.5.3.1 0 .4-.1.6-.2.6-.9.7-1.5 1.2.9-.1 1.5-.3 2.1-.7.7-.5 1.4-1.2 2.5-1.2 0 .1 0 .2.1.2.2.7-.3 1.9 1.2 1.7.1 0 .2.1.2.2.1.3.4.3.6.4l1 .7c-.9.3-1.5.7-1.7 1.6-.1.3-.7.1-1 .4-.1.1-.3.1-.4.4l-.1.1c-.2.2-1-.4-.7.5 0 .1-.2.1-.2.1-.3-.1-.6-.2-.6-.5 0-.2-.1-.5-.3-.4-1.1.1-1.8-1.2-2.3 0l-.1-.1h-.1s.1 0 .2.1zm-7.6-1.7 3.2-.4c.4-.1 1-.2.9-.6-.1-.5-.7-.3-1-.2-1 .3-1.9.1-2.9.1-.6 0-1.2.2-1.9.1-.4 0-.6.3-.6.6 0 .4.4.2.6.2.6 0 1.2.3 1.7.2zm-5.8-.6c-.3.2-.7 0-.9.4-.2.4.3.5.4.7.1.2.4.3.5.5.4.9.9 0 1.3.1.3.1.7-.2.9-.6.1-.2-.1-.3-.2-.4-.6-.4-1.2-.6-2-.7zm2.8-2.7h-.2c-.2.1-.7-.1-.7.4 0 .6.4.1.6.3.1.1.3.2.4.3.4.4.7.3 1-.1.2-.2.3-.5.7-.3.6.4 1.4.2 2 .5.5.2.5-.2.6-.5.1-.4-.2-.4-.5-.4-1.3-.4-2.6.1-3.9-.2zm10.4 3.1c-.1-.3.3-.9-.5-.9-.6 0-1.6.6-1.5 1 .2.7.9.8 1.4.9.7.1.5-.6.6-1zm-9.9.6c0-.2-.1-.3-.3-.3-.2 0-.4 0-.4.2s.2.3.3.3c.2.2.3.1.4-.2zm33.8-17.5c-.1.6.4 1.2 0 1.8-.2.4-.3 1-.8 1s-.5-.6-.7-.9l.7-4.7c.3-.5.7-1 1.3-1.4h.6c.3.1.4 0 .3-.3 0-.1.1-.1.1-.2.1-.1.2-.1.3-.2.9-1.7 1.4-3.5 1.3-5.4 0-.4-.2-.8-.6-.9-1-.3-1.9-.5-3-.5-.1-1.1.7-1.9 1.2-2.7.6 0 .6-.5.9-.8.1-.2.2-.3.5-.3.2 0 .3.2.4.4.5 1.4 1.2 2.8 1.3 4.3 0 .1 0 .3.2.4.2.3.2.7.2 1l-.3 2.7c-.1 1-.3 2-.9 2.8-.1 0-.1 0-.1.1-.2.3-.5.4-.8.6-.3 0-.5.1-.5.5-.1.2-.1.4-.2.6-.4.3-.6.9-1.1 1.1-.2.3-.4.6-.3 1zm-60.9-3c-.1.5.3.9.4 1.3.2.6.3 1.2 0 1.8L57 83c-1-1-1.4-2.2-1.8-3.5-.4-1.1-1-2.3-1.1-3.4-.2-1.8-1.2-3.4-1.2-5.2 0-.3 0-.6.1-.8.3-.3 0-1.1.8-1.2 2 1 3 2.7 3.3 4.9.1.7.1 1.5 0 2.2-.2-.3-.1-.7-.5-.8-.7-.2-.8-.8-1-1.4-.3-1-.2-2.1-.8-3.1-.7.8-.9 1.7-.6 2.7s.4 2.1.6 3.1c.2.7.3 1.5 1.1 1.8.1.1.2.3.3.4-.1.1-.1.3.1.2.1.1.2.2.2.4-.1.1-.1.2.1.2.1.2.2.4.2.6z"/><path class="st0" d="M117.3 71.5c1-.1 2 .1 3 .5.4.1.6.5.6.9.1 1.9-.4 3.7-1.3 5.4 0 .1-.2.1-.3.2 0-.8.3-1.5.7-2.2.4-.9.3-1.9.3-2.9 0-.3-.2-.6-.6-.6-.3 0-.6.2-.5.5.3 1.2-.5 2-.8 3 0-.5-.2-1.1.2-1.6.1-.2.1-.5-.1-.6-.7-.4-.8-1.1-1.1-1.7-.3-.3-.2-.6-.1-.9zm-22.8-32c-.1 0-.3.2-.4.1-1.7-.6-3.3.2-5 0-1 0-2 .3-3 .7-.7.2-1.2-.8-1.4-.3-.3.7-.8.7-1.3.6-.5 0-1 0-1.4-.2-.9-.4-1.9.2-2.8-.1 1.4-.4 2.8-.5 4.3-.8.5-.1 1 .2 1.5.1.9-.2 1.9.3 2.7-.5.3-.2 1-.5 1.5.1.3.3.7.1 1 0 1.5-.2 3 0 4.4-.4.3.3 0 .5-.1.7zM55.8 78.2c-.8-.3-.9-1.1-1.1-1.8l-.6-3.1c-.3-.9 0-1.8.6-2.7.7 1 .6 2.1.8 3.1.2.6.2 1.2 1 1.4.4.1.3.6.5.8.1.3.1.6 0 .8h-.1c-.2-.3-.1-.9-.7-.7-.4.1-.7.9-.5 1.4.1.3.3.5.1.8z"/><path class="st1" d="M86.3 94.8c.2-.3.9.1.9-.5-.7-.1-1.4.1-2.1.1-.2 0-.5 0-.6-.2-.1-.3.1-.4.3-.6 1-1.2 1.2-1.1 2.9-.5.8.2 1.3.9 2.1 1.1.3.1.4.3.1.5-.7.4-2.8.6-3.6.1zM92 106c0 .3.1.5.1.7.2 0 .2-.1.2-.1 0-.4.1-.7.6-.4.3.2.5 0 .5-.4.1-.3.3-.6.7-.2.1.1.2.2.4.1.7-.2 1.2.1 1.4.7.1.4-.4 1-1 1.1-.8.1-.8.1-1.3.5l-.1.1c-.3-.8-1.1-.3-1.5-.6-.4-.3-.2-.9 0-1.5z"/><path class="st0" d="M119.3 64.6c.2-.1.5-.2.7-.4 1.5-.8 1.5-.8 2.4.5-.6.2-1.2.3-1.5.9-.8 0-1.2.7-1.7 1.2-.2.2-.4.5-.6.7-.1-.1-.1-.4-.3-.1-.1.1-.1.4-.4.4 0-.6.1-1.1.5-1.6.2-.3.7-.6.6-1.1-.1-.3.1-.4.3-.5zm-2.1 7.9c.3.6.4 1.3 1.1 1.7.2.1.2.4.1.6-.4.5-.2 1-.2 1.6 0 .3-.1.8-.4.9-.8.3-.7 1.1-.9 1.7-.3-.6 0-1.3 0-1.9.3-1.6.4-3.1.3-4.6zM100 98.9c-.2-.1-.5-.1-.6-.4 0-.1-.2-.2-.2-.2-1.5.2-1-1-1.2-1.7 0-.1 0-.2-.1-.2l.3-.3c.5.2.9.2 1.4 0 .4.2.3.6.4 1-.2.3-.2.6 0 .8-.1.3.2.7 0 1z"/><path class="st4" d="M76.4 67.1c-.5.1-.9-.1-1.4-.2-1.9-.4-3.8-.4-5.5.6-.4.2-.8.3-1.2.5-.1 0-.3.1-.3-.1-.1-.1.1-.2.2-.3.8-.6 1.7-.9 2.7-1.1 1.8-.1 3.7-.3 5.5.6zM71 70.5c-.5-.3-1.3-.3-1.8-.7-.3-.3-.3-.5 0-.7.3-.3.6-.5.9-.7.2-.2.5-.5.8-.4s-.1.5 0 .7c.1.4.2.9.4 1.2.1.1.3.2.2.4-.1.3-.3.2-.5.2zm4.7 0c-.2 0-.4-.2-.1-.4.5-.4.6-1 .6-1.6 0-.4.3-.5.6-.2.2.2.4.4.6.5.3.2.6.6.5.9-.1.4-.5.3-.8.4-.5.1-1 .2-1.4.4z"/><path class="st0" d="M55.3 68.2c.7.6.8 1.4 1 2.3-.8-.7-1.4-1.6-2.5-1.8-.1-.3-.2-.5-.6-.2l-.2-.2c.2-.3.5-.2.8-.3.6-.3 1 .3 1.5.2zm63.6-3.2c.1.5-.3.8-.6 1.1-.4.5-.5 1-.5 1.6.3 0 .3-.3.4-.4.2-.3.2 0 .3.1-.1.6-.4 1.2-.9 1.7-.8-.8-.4-1.6 0-2.3.4-.7.6-1.4 1.3-1.8z"/><path class="st0" d="M55.3 68.2c-.5.2-.9-.4-1.5-.2-.3.1-.6.1-.8.3-.4.1-.8 0-.8-.6 0-.4.3-.8.7-.7.7.2 1.5.2 2.2.7.2.2.3.2.2.5zM52.7 74c.6 2.2 1.7 4.2 1.7 6.6l-2-6.5c.1 0 .2-.1.3-.1z"/><path class="st1" d="M97.2 104.2c0 .2.1.5-.3.5-.8 0-.7-.7-.9-1.2-.1-.2.1-.3.3-.3.4.1.9.3.9 1zM111 29.4V32c-.4-.3-.4-1.5 0-2.6zm-20.5 72.5c.7.8 1.5 1.3 2 2-.6-.7-1.9-.6-2-2z"/><path class="st4" d="M72.4 69.6c-.4-.5-.5-.9-.4-1.3 0-.2.1-.4.4-.4s.2.2.2.4c-.1.4-.1.8-.2 1.3z"/><path class="st0" d="M118.2 78.9c-.6.3-.9.8-1.3 1.4-.3-.5.3-.8.1-1.3.4-.1.8-.2 1.2-.1z"/><path class="st4" d="M74.9 69.2c-.1-.3-.1-.5-.3-.7-.2-.2-.1-.4 0-.6 0-.1.2-.1.2-.1.2.1.3.3.3.5.1.4-.1.6-.2.9z"/><path class="st0" d="M53.3 68.4c.3-.2.5 0 .6.2 0 .1-.1.2-.1.3-.8.1-.4.8-.8 1.2-.4-.7.1-1.1.3-1.7z"/><path class="st1" d="M106.2 38.5c.9-.7.9-.7 1.8 0-.6.4-1.1 0-1.8 0zm10.4 24.8V61c.2.7.1 1.5 0 2.3z"/><path class="st0" d="M99.6 96.1c-.5.2-.9.2-1.4 0 .4-.6.9-.6 1.4 0z"/><path class="st1" d="M93.6 102.7c1.1.6 1.1.6.4 1-.1-.2-.1-.4-.2-.5-.1-.2-.2-.3-.2-.5zM91.9 124c-.4.4-.8.4-1.2 0 .4-.2.8-.2 1.2 0zm4.6-84.8c.4-.3.8-.4 1.4-.3-.5.4-.9.3-1.4.3zm15.3 11c.3.3.6.7.6 1.2-.2-.4-.6-.7-.6-1.2z"/><path class="st0" d="M100 97.9c-.2-.3-.2-.6 0-.8.3.2.3.5 0 .8z"/><path class="st1" d="M69 114.9c-.1-.2-.1-.4-.2-.7.4-.1.4.3.5.5.1.3-.1.2-.3.2zm48.5-45.6c0 .2 0 .4-.2.5-.1-.3-.1-.4.2-.5zM56.6 41.5c0-.3.1-.4.3-.5 0 .3-.1.4-.3.5zm36.8 81.8c0 .1 0 .2-.1.2-.2 0-.2-.1-.2-.2s.2-.1.3 0z"/><path class="st2" d="M75.2 40.9c-.1.2-.2.2-.3 0 0-.2.1-.2.3 0z"/><path class="st1" d="M55.2 43.4c0 .2-.1.4-.3.5 0-.2.1-.4.3-.5zm0 0c0-.2.2-.4.3-.5.1.2 0 .4-.3.5zM51 54.2h-.2c-.1-.3.2-.5.3-.7v.5c-.1 0-.1.1-.1.2zm43.2 68.7v.2c-.1.1-.2 0-.2 0-.1-.2 0-.2.2-.2zM56.2 42c0-.1.1-.2.2-.3v.1c0 .1-.1.2-.2.2zm12.7 72.2c-.2 0-.2-.2-.2-.4l.1-.1c.2.2.1.3.1.5zM56 42.4c-.1.1-.1.3-.4.3.2-.1.2-.3.4-.3z"/><path class="st2" d="M77.7 40.5h-.2c0-.1.1-.1.2 0zm-1.4.2h-.2c.1-.1.2-.1.2 0z"/><path class="st1" d="M88.7 124.7c-.1.2-.2.2-.3.1s0-.2.1-.2.2 0 .2.1zM57.2 40.8c0-.1-.1-.1 0 0l.1-.2s.1 0 .1.1c-.2 0-.2.1-.2.1z"/><path class="st0" d="M57.5 88.3c.1.1.2.2.2.3h-.1s0-.2-.1-.3z"/><path class="st1" d="M92.5 123.7c.1.2.1.2-.1.2-.1 0-.1-.1-.1-.2.1-.1.2-.1.2 0zm-36-44.2c-.2 0-.2-.1-.1-.2.2 0 .2.1.1.2zm-5.7-25.3c-.1.1 0 .3-.2.3h-.1c.1-.1.2-.3.3-.3.1.1 0 0 0 0zm5.4 24.6c-.2 0-.2-.1-.1-.2.2 0 .2.1.1.2z"/><path class="st3" d="M112.1 91.8h-.2s0-.1.2 0c0-.1 0-.1 0 0zm-12.5 9.4zm-2.2-61.5c0 .1 0 .1 0 0z"/><path class="st1" d="M69.6 115c.2-.1.2-.1.2 0h-.2zM54.5 44.4v.2h-.1c0-.1.1-.2.1-.2zm1.7-2.4c0 .1 0 .3-.1.4-.1-.2-.1-.3.1-.4zm55.5 8.1c0-.2-.1-.1 0 0zm-56.9-6.2c0 .2 0 .3-.2.3.1-.1.1-.3.2-.3z"/><path class="st3" d="M110.9 92.2c0 .1-.1.1-.1.2l-.1-.1s.1-.1.2-.1c-.1 0 0 0 0 0zm-11.3 9 .2.2-.2-.2z"/><path class="st1" d="m55.5 42.9.2-.2c0 .1-.1.2-.2.2zm-3.3 10.5s0-.1 0 0c.1-.1.1-.1 0 0 .1-.1.1 0 0 0zm-1 .2zm60.6-3.4c-.1 0-.1-.1-.2-.2.2.1.2.1.2.2zM57.7 40s0-.1 0 0zm0 0c0 .1-.1.2-.2.2l.2-.2z"/><path class="st2" d="M56.9 83z"/><path class="st1" d="M57.5 40.2c-.2 0 0 0 0 0z"/><path class="st2" d="M76.6 67.3c-.1 0-.2 0-.2-.2.1 0 .2.1.2.2z"/><path class="st1" d="M54.5 44.4c0-.1.1-.2.2-.2 0 .1-.1.2-.2.2zm63 24.9c0-.1 0-.2.2-.2 0 .1 0 .2-.2.2z"/><path class="st2" d="M95.8 107.3zm-21.4-6.4h-.2.2z"/><path class="st1" d="M98.2 102.4c.1.1 0 .1 0 0 0 .1 0 0 0 0zm-.4-.4c.1 0 .2.1.1.2s-.1-.1-.1-.2z"/><path class="st2" d="M99.8 101.4zM52.4 73.7z"/><path class="st1" d="M117.7 83.1c-.1-.4.1-.6.3-.8.2 0 .3 0 .5.1.3.1.3.4.2.6-.1.3-.3.2-.5.1s-.3-.1-.5 0zM49.8 56.9c-.1.1-.1.3-.3.2-.1-.1 0-.2.1-.3s.1 0 .2.1zm1.2-2.7c0-.1 0-.2.2-.2 0 .2 0 .3-.2.2zm-1.7 3.2c0-.1.1-.1 0 0zm-.1 2.9c-.1 0-.1.1-.2.1-.1-.1 0-.2 0-.2.1 0 .2.1.2.1zm50.2 3.2c-1.7.1-3.2.7-4.8 1.1-1.8.5-3.4 1.4-5.2 1.8-1.1.2-1.4-.1-1.3-1.3v-.5c0-.2 0-.4.1-.6.5-.4 1-.8 1.6-1.1.2 0 .3-.1.5-.2l3.3-1 5.4-1.9c.1 0 .2-.1.4-.1.4.1.7.1 1-.3 2.1-.4 4 .1 5.9 1.1.1.1.2.1.3 0-.1.3.2.3.3.4 1.4.9 2.6 1.9 3.4 3.4.1.2.3.4.3.7.1.3.3.5.1.8-.3.3-.5 0-.7-.1-1.1-.2-2.1-.8-3-1.4-.5-.3-1-.4-1.5-.1l-1.1-.3c-1.3-.5-2.6-.5-4-.3-.1-.1-.2-.1-.2 0-.4-.1-.6-.1-.8-.1z"/><path class="st0" d="m99 59.8-5.4 1.9c-1.1.4-2.2.6-3.3 1 .2-.6.9-.7 1.3-.8l5.1-1.7c.7-.3 1.5-1 2.3-.4z"/><path class="st1" d="M89.9 62.9c-.5.4-1 .8-1.6 1.1 0-.8.7-1.2 1.6-1.1zm10.4-3.5c-.2.4-.6.4-1 .3.2-.6.6-.5 1-.3zm-4.5 10.2c-.1.2-.3.3-.5.3-.7.1-1.4-.1-2.2.2-.5.2-.8.1-.8-.6 0-.2.1-.7-.3-.6-.4.1-1-.3-1.1.6 0 .3.1.7-.2 1.1l-.5-1.5c-.1-.4-.2-.8-.6-1.1-.5-.4 0-1.1.9-1.4 1-.3 1.9-.8 3.1-.7.4 0 .9-.4 1.3-.5 2-.5 3.9-.5 5.9-.5 2.3.1 4.3 1.1 6.2 2.3.4.2.6.8.9 1.2.1.2.1.3-.1.5-.1.1-.3.2-.5.1s-.4-.3-.6-.3c-.3-.1-.6 0-.7.3-.1.2.4.5.1.5-.6 0-1 .7-1.6.5-1.5-.5-2.9 0-4.4.1-.9 0-1.8 0-2.6-.3-.3-.4-.7-.8-.8-1.4-.2-1-.2-1-1-.4-.3.2-.5.3-.7.6-.5.7-.4 1 .3 1.1 0-.2.2-.1.5-.1zm3.4-3.8c.1.1.1.1.2 0h.4c2 .2 4 .9 5.7 1.9-1.3-1.3-2.8-2.1-4.6-2.3-1.2-.1-2.4-.1-3.6.2-1 0-1.8.4-2.7.8-.2.1-.4.2-.3.4 0 .2.3.1.4.1-.1.1-.3.2-.3.4.1.2.2.1.3 0 1.2-.7 2.4-1.1 3.7-1.4.4-.2.6-.2.8-.1zm3.8 2c-.4-.2-.8-.4-1.2-.7 0 .8 0 1.5-.7 2.1-.1.1-.2.1-.1.3.1.1.2.1.3 0 .6-.3 1.2-.5 1.9-.8.5-.4.1-.7-.2-.9zm-3.1-.8c-.1 0-.3.1-.3.3 0 .4.3.5.5.5s.3-.1.3-.3c.1-.4-.2-.4-.5-.5zM98 72.9c-1.2.1-2.5-.6-3.8-1-.2-.1-.3-.2-.3-.4s.3-.4.4-.3c.8.2 1.6-.2 2.3.5.1.1.3.2.5.2 1.1-.5 2 .2 2.9.4.9.2 1.8-.4 2.7-.6.2 0 .4-.3.6-.3s.5-.1.6.2c.1.3-.1.4-.3.6-.9.4-1.7.7-2.7.7-.9-.1-1.8 0-2.9 0zM92.5 80c.2-.2.4-.2.5-.1.9.7 1.8 1.3 2 2.6.2 1.5-.3 2.5-1.5 3.3-.4.3-.9.3-1.5 0-1.3-.5-2.6-.5-3.8.3-.2.1-.4.5-.6.2-.2-.2.1-.4.2-.6 1.1-1.5 2.8-1.8 4.5-.9.5.3 1.1.6 1.6.2.6-.4.8-1 .7-1.7-.1-1.1-.6-1.8-1.4-2.5-.2-.3-.5-.5-.7-.8z"/><path class="st0" d="M100 88.2c-.9.1-1.5-.7-2.4-.9-.4-.1-.7-.3-1.1-.3-.2 0-.4 0-.5-.2-.1-.2.1-.4.2-.5.8-1 1.5-.9 2.8.1.6.4.7 1.1 1.3 1.5.1 0 .1.2 0 .3 0 .1-.1.1-.3 0zm-.6-24.7h.6c0 .1.1.1.2.1 0 0 0-.1.1-.1 1.4-.1 2.7-.1 4 .3l1.1.3c.2.6 1 .2 1.3.8-.8 0-1.5-.2-2.2-.4s-1.4-.2-2.1-.2c-.8 0-1.5-.1-2.3-.2-.6 0-.6-.3-.7-.6zm-6.3 20c0 .3-.1.5-.5.5-.5-.1-1.1-.1-1.6-.2-.4-.1-.7-.4-.3-.8.1-.1.1-.2.2-.3.2-.4.4-.9 1-.8.5 0 1.2 1 1.2 1.6zm-12.4.8c-.6 0-1.1.1-1.4-.4-.2-.3-.2-.7 0-1 .4-.6.9-.7 1.4-.2.2.1.3.3.4.5.2.3.5.6.4 1-.1.3-.5 0-.8.1z"/><path class="st4" d="M94.8 68.4c.2-.3.4-.4.7-.6.8-.5.8-.5 1 .4.1.6.5.9.8 1.4-.5.3-1-.2-1.6 0-.2 0-.5-.1-.7-.1-.2-.3-.2-.7-.2-1.1z"/><path class="st1" d="M102.4 89c-1.3-1.6-3-2.8-4.5-4.3l-.4-.4c-.1-.1-.2-.3 0-.4.1-.1.3 0 .4.1 1.8 1.3 3.2 2.9 4.5 4.6v.4zm.1 0c.3.1.4.3.3.7-.2-.2-.4-.4-.3-.7-.1 0 0 0 0 0zm4.3-28.2c-.1-.1-.4-.1-.3-.4.2 0 .3.2.3.4zm-4 28.9c0 .1 0 0 0 0z"/><path class="st0" d="M69.7 91.6c-.3-.4-.3-.7-.1-1 .4-.6.1-1.1-.4-1.4-1.2-.7-2-1.7-2.8-2.8-1.8-2.6-2.5-5.3-1.1-8.3.5-1.1 1.2-1.6 2.3-1.8 1-.1 1.9-.1 2.9.5 1.1.6 2.3 1 3.5 1.3.4.1.8-.3 1.2-.4 1.3-.5 1.8-.2 1.7 1.1 0 .7.2 1 .8 1.2.8.3.9.5.2 1.1-2.3 1.8-3.9 4.2-5.7 6.4-.1.1-.2.2-.2.3 0 1.7-1.6 2.4-2.3 3.8z"/><path class="st1" d="M86.4 100.2c-.6.1-1.1-.2-1.7-.2-.2 0-.6.1-.6-.2s.2-.6.6-.6c.6.1 1.3-.1 1.9-.1.9 0 1.9.3 2.9-.1.3-.1.9-.3 1 .2.1.5-.5.6-.9.6l-3.2.4z"/><path class="st0" d="M80.6 99.6c.7.2 1.4.3 2 .8.1.1.3.2.2.4-.2.4-.6.7-.9.6-.4-.1-.9.8-1.3-.1-.1-.2-.4-.3-.5-.5-.1-.2-.6-.3-.4-.7.2-.5.6-.4.9-.5zm2.8-2.7c1.3.3 2.6-.2 3.8.1.3.1.6 0 .5.4-.1.3-.1.7-.6.5-.6-.3-1.4-.1-2-.5-.3-.2-.5.1-.7.3-.3.4-.6.4-1 .1-.1-.1-.3-.2-.4-.3-.2-.2-.6.3-.6-.3 0-.5.5-.2.7-.4.2.1.3.1.3.1zm10.4 3.1c-.1.4.1 1.1-.5 1-.5-.1-1.2-.2-1.4-.9-.1-.4.9-1.1 1.5-1 .6 0 .3.6.4.9zm-9.9.6c-.1.2-.2.4-.4.3-.2 0-.3-.2-.3-.3 0-.2.2-.2.4-.2s.3.1.3.2z"/><path class="st1" d="M94 101.9c-.1 0-.1-.1-.2-.1l.2.1c-.1 0 0 0 0 0zm24.2-23c-.4-.1-.8 0-1.2.1.2-.6 0-1.4.9-1.7.2-.1.3-.6.4-.9.3-1 1.1-1.9.8-3-.1-.3.2-.5.5-.5.4 0 .6.3.6.6 0 1 .2 1.9-.3 2.9-.3.7-.6 1.4-.7 2.2 0 .1-.1.1-.1.2-.2-.1-.3.1-.3.3-.2-.2-.4-.2-.6-.2zm-17.9-15.5s0 .1 0 0c-.2.1-.3.1-.3 0 .1-.1.2-.1.3 0z"/><path class="st4" d="M101 65.3c1.8.2 3.3 1 4.6 2.3-1.8-1-3.7-1.7-5.7-1.9.3-.3.9.2 1.1-.4zm-2.4.4c-1.3.3-2.6.7-3.7 1.4-.1.1-.3.2-.3 0-.1-.2.2-.2.3-.4 0 0 .2 0 .1-.1 0 0 0 .1-.1.1s-.4.1-.4-.1c-.1-.2.2-.3.3-.4.9-.3 1.7-.8 2.7-.8.2.8.8 0 1.1.3zm4.6 3c-.6.3-1.2.5-1.9.8-.1.1-.2.1-.3 0s0-.2.1-.3c.7-.5.7-1.2.7-2.1.4.2.8.4 1.2.7 0 .3-.1.7.2.9z"/><path class="st4" d="M98.6 65.7c-.3-.4-.9.4-1.2-.2 1.2-.3 2.4-.3 3.6-.2-.2.6-.9.1-1.2.4h-.4c-.1-.1-.1-.1-.2 0h-.6zm1.3 1.3c.3.1.6.1.6.5 0 .2-.1.3-.3.3-.3 0-.5-.1-.5-.5-.1-.2.1-.3.2-.3zm-5.1 1.4c0 .4.1.8.3 1.1-.8-.1-.9-.4-.3-1.1zm8.4.3c-.3-.2-.3-.6-.2-.9.3.2.7.5.2.9z"/><path class="st2" d="M99.2 65.8c.1-.1.1-.1.2 0-.1.1-.1.1-.2 0z"/><path class="st1" d="M94.8 66.8s0-.1 0 0c.2 0 0-.1 0 0z"/><path class="st3" d="m92.8 113.3-3.6-6.5 1.6-2.9 4.5.9v-2l2 .3 1.5 2.8L102 99l-2.3-6.7-3.9 2.7-6.4.1-3.1.5-2.2-.5-.6-2.5.4-2.1 7.9-.5 9.5.2 3.8 6.5 1.1 5.7-3.1 6.1-4.3 5.6c-.4.2-6.1 2.2-6.1 2.2h-6l-5.1-2.1-5.1-3.4-2.3-.6 11.7-.9 3.4 4.2 3.5-.2z"/></svg>
