<svg xmlns="http://www.w3.org/2000/svg" width="80" height="80" viewBox="0 0 80 80">
  <g fill="#25447E" fill-rule="evenodd" transform="translate(0 12)">
    <path d="M66.5239044,46.0893925 C59.4403635,50.9686255 50.0336156,53.6553785 40.0373506,53.6553785 C30.0410856,53.6553785 20.6343377,50.9686255 13.5507968,46.0893925 C6.39504478,41.1603586 2.45393434,34.5835409 2.45393434,27.5697211 C2.45393434,20.556524 6.39504478,13.9790837 13.5507968,9.05004972 C20.6343377,4.17081673 30.0410856,1.48406375 40.0373506,1.48406375 C50.0336156,1.48406375 59.4403635,4.17081673 66.5239044,9.05004972 C73.6796564,13.9790837 77.6207669,20.556524 77.6207669,27.5697211 C77.6207669,34.5835409 73.6796564,41.1603586 66.5239044,46.0893925 Z M40.0373506,0.0765687649 C17.9930279,0.0765687649 0.122634422,12.3860806 0.122634422,27.5697211 C0.122634422,42.7539841 17.9930279,55.0628735 40.0373506,55.0628735 C62.0816733,55.0628735 79.9514441,42.7539841 79.9514441,27.5697211 C79.9514441,12.3860806 62.0816733,0.0765687649 40.0373506,0.0765687649"/>
    <path d="M40.373506 13.7406623L40.373506 17.7795069C43.062749 17.8093874 46.0140687 17.9874253 49.156499 18.3964143L50.7607073 14.7634462C47.7390438 14.1484064 44.1870021 13.7786355 40.373506 13.7406623M39.0525399 19.0986056C36.4386206 19.117281 34.1060757 19.2735308 32.132719 19.4820717 31.4180778 19.5573954 30.7345618 19.6414343 30.0809262 19.7310757L31.6963396 23.5134462C33.5943726 23.2918327 36.1846365 23.1523904 39.0525399 23.1424303L39.0525399 19.0986056M29.5424551 18.4704931C30.3012948 18.3627987 31.1043327 18.2625747 31.9484561 18.1723108 33.9728586 17.9575449 36.3676543 17.7963147 39.0525399 17.7776395L39.0525399 13.7406623C34.9626494 13.781748 31.1734312 14.2038097 28.0173058 14.9003984L29.5424551 18.4704931M40.373506 19.1004731L40.373506 23.1467879C42.8984064 23.1735557 45.1736803 23.3011704 46.9055029 23.4953935L48.5999751 19.6582421C45.6623506 19.2915837 42.8996513 19.1284861 40.373506 19.1004731M41.3925547 12.4178287C41.3589393 12.3387699 41.3402639 12.2516185 41.3402639 12.1601096L41.3402639 10.8783616 38.2109065 10.8783616 38.2109065 12.1601096C38.2109065 12.2503735 38.1928535 12.3369023 38.1598606 12.4153386 38.6734312 12.4041335 39.1913595 12.3972859 39.7130229 12.3972859 40.2776395 12.3972859 40.8378983 12.404756 41.3925547 12.4178287"/>
    <path d="M39.7130229,26.9901643 C51.123008,26.9901643 60.372261,24.0232819 60.372261,20.3635458 C60.372261,18.1909861 57.1127987,16.2624502 52.0766932,15.0541584 L50.5166833,18.5875249 C53.2053037,18.9890438 56.0209163,19.560508 58.9249253,20.3548306 C59.2766435,20.4506972 59.4839393,20.814243 59.3874502,21.1659611 C59.3071465,21.4597858 59.0413347,21.6521415 58.7506225,21.6521415 C58.6933516,21.6521415 58.6348357,21.6446712 58.5763197,21.6291085 C55.5963646,20.8136206 52.7104083,20.2365538 49.9632719,19.8406375 L48.2687998,23.6796564 C49.5356076,23.8888198 50.2826196,24.1440488 50.2826196,24.4191982 C50.2826196,25.1257469 45.4021415,25.6978336 39.3824701,25.6978336 C33.3621763,25.6978336 28.4823206,25.1257469 28.4823206,24.4191982 C28.4823206,24.155254 29.1677042,23.9093625 30.3417579,23.7051793 L28.7282121,19.9296564 C24.1085657,20.6586155 21.345244,21.6042081 21.3116285,21.6160359 C20.9673804,21.7355578 20.5913845,21.5525399 20.47124,21.2082918 C20.3517181,20.8640438 20.5341135,20.4874253 20.8783616,20.3679034 C21.0159363,20.31997 23.6752988,19.407993 28.1928535,18.6752988 L26.7143924,15.2128985 C22.0412102,16.4280379 19.0537849,18.2837401 19.0537849,20.3635458 C19.0537849,24.0232819 28.3030378,26.9901643 39.7130229,26.9901643"/>
    <path d="M39.7130229,29.0500497 C26.4292829,29.0500497 15.660483,25.3224602 15.660483,20.7239791 C15.660483,19.2249751 16.8052789,17.8181026 18.808516,16.6035857 L18.808516,12.120269 C18.808516,12.032495 18.8334164,11.9602838 18.8832172,11.9036354 C18.9336405,11.8476096 18.9946464,11.8202191 19.0674802,11.8202191 L23.5258964,11.8202191 L19.6744273,14.5001245 L19.6744273,16.1180279 C21.468501,15.1842629 23.7917082,14.3837151 26.4965139,13.7668078 L26.4965139,9.4777141 C26.4965139,9.38994024 26.5214143,9.31772908 26.5705927,9.26108064 C26.6210159,9.20505482 26.682022,9.17704191 26.7554781,9.17704191 L31.2132719,9.17704191 L27.3618027,11.8575697 L27.3618027,13.5781873 C30.2284612,12.9830677 33.4816982,12.589019 36.9609065,12.4520668 C36.9167082,12.3636703 36.8899402,12.2653138 36.8899402,12.1601096 L36.8899402,10.8783616 L36.4093625,10.8783616 L36.4093625,8.01979586 L43.2563496,8.01979586 L43.2563496,10.8783616 L42.6612301,10.8783616 L42.6612301,12.1601096 C42.6612301,12.2671812 42.6332172,12.3674054 42.5877739,12.4570469 C45.504233,12.5771912 48.2600846,12.8778636 50.7600846,13.3260708 L50.7600846,9.4777141 C50.7600846,9.38994024 50.784985,9.31772908 50.8347858,9.26108064 C50.8845866,9.20505482 50.9462151,9.17704191 51.0190488,9.17704191 L55.4774652,9.17704191 L51.625996,11.8575697 L51.625996,13.4891683 C54.0849103,13.9753485 56.2705428,14.6071962 58.0870269,15.3510956 L58.0870269,11.8799801 C58.0870269,11.7922062 58.1119273,11.7199951 58.1623506,11.6633466 C58.2115289,11.6079433 58.2731573,11.5793077 58.3466135,11.5793077 L62.8044073,11.5793077 L58.9535608,14.2598357 L58.9535608,15.7270916 C61.9746016,17.1184014 63.7655627,18.8489791 63.7655627,20.7239791 C63.7655627,25.3224602 52.996763,29.0500497 39.7130229,29.0500497 Z M60.5683516,36.7044322 L60.5683516,38.9056274 L59.0525399,38.9056274 L59.0525399,36.5836653 L56.7548556,32.844248 L58.3073954,32.844248 L59.8350349,35.4226843 L61.3134961,32.844248 L62.8654134,32.844248 L60.5683516,36.7044322 Z M59.9632719,46.7704183 L59.6700698,46.0769422 C59.6047061,45.936255 59.5493028,45.8509712 59.5051045,45.8204682 C59.4596614,45.7905877 59.3806025,45.7756475 59.2666833,45.7756475 L56.9814492,45.7756475 L57.4333914,44.6899901 C57.4987551,44.5592629 57.5516684,44.4764692 57.5921315,44.4409861 C57.6332172,44.4061256 57.7147659,44.3880727 57.8367778,44.3880727 L58.936753,44.3880727 L57.9587898,42.1115538 L56.0034861,46.7704183 L54.3171066,46.7704183 C54.7734064,45.7252241 55.1848854,44.7852341 55.5515439,43.9510708 C55.7059264,43.5993527 55.8590637,43.2526145 56.0097112,42.9108566 C56.1603586,42.5690986 56.2948207,42.2597112 56.4130977,41.9833167 C56.530752,41.7069224 56.6284861,41.4809512 56.7062998,41.3047809 C56.783491,41.1292331 56.8301793,41.0308765 56.8469871,41.0109562 C56.9117281,40.870269 56.9646414,40.784985 57.0057272,40.7544821 C57.0461903,40.7246016 57.127739,40.7090389 57.2503735,40.7090389 L58.936753,40.7090389 L61.6372013,46.7704183 L59.9632719,46.7704183 Z M51.4143426,35.0155627 C51.4877989,35.1058266 51.5774403,35.15127 51.6832669,35.15127 L54.873008,35.15127 C55.0765688,35.15127 55.2720368,35.1960907 55.4594123,35.2869771 C55.6467879,35.3772411 55.8080178,35.5054781 55.94248,35.6716883 C56.0769422,35.8372759 56.1846365,36.0333665 56.2661852,36.2593377 C56.347734,36.4853087 56.3881973,36.7392927 56.3881973,37.0212899 C56.3881973,37.3026644 56.347734,37.5591385 56.2661852,37.7900896 C56.1846365,38.0210408 56.0769422,38.2196215 55.94248,38.3852092 C55.8080178,38.5514193 55.6467879,38.6796564 55.4594123,38.7699203 C55.2720368,38.8608067 55.0765688,38.9056274 54.873008,38.9056274 L50.0336156,38.9056274 L50.498008,37.81997 C50.5633715,37.6792829 50.6162849,37.593999 50.656748,37.5641186 C50.6978336,37.5336156 50.77876,37.5186754 50.9013944,37.5186754 L54.5798057,37.5186754 C54.6937251,37.5186754 54.7895917,37.470742 54.8667828,37.375498 C54.9439742,37.2796316 54.9831922,37.1619771 54.9831922,37.0212899 C54.9831922,36.8806025 54.9439742,36.7623257 54.8667828,36.6664591 C54.7895917,36.5712151 54.6937251,36.5232819 54.5798057,36.5232819 L51.6465388,36.5232819 C51.4025149,36.5232819 51.1740539,36.4834413 50.9624003,36.4025149 C50.7501245,36.3222112 50.565239,36.2014441 50.406499,36.0408367 C50.247759,35.8802292 50.1232571,35.6866285 50.0336156,35.4606574 C49.9439742,35.2340637 49.8991535,34.9757221 49.8991535,34.6837649 C49.8991535,34.3924303 49.9439742,34.1334661 50.0336156,33.907495 C50.1232571,33.6809014 50.247759,33.4879233 50.406499,33.3266932 C50.565239,33.1660857 50.7501245,33.0453187 50.9624003,32.965015 C51.1740539,32.8847111 51.4025149,32.844248 51.6465388,32.844248 L55.6673307,32.844248 L55.2153884,33.9299053 C55.1500249,34.0606325 55.0971116,34.1409363 55.0566484,34.1714392 C55.0155627,34.2013197 54.934014,34.2162599 54.8120019,34.2162599 L51.6832669,34.2162599 C51.5774403,34.2162599 51.4877989,34.2617033 51.4143426,34.3519672 C51.341509,34.4428535 51.3047809,34.5530378 51.3047809,34.6837649 C51.3047809,34.8144921 51.341509,34.9246763 51.4143426,35.0155627 Z M51.689492,46.7704183 L49.1838894,46.7704183 L49.6364542,45.6853834 C49.7011952,45.5546564 49.7541085,45.4718626 49.7951943,45.4363794 C49.8356574,45.4015189 49.9172062,45.3834661 50.0398406,45.3834661 L51.4940239,45.3834661 C51.6726843,45.3834661 51.848232,45.3635458 52.0194223,45.3230827 C52.1906126,45.2832421 52.3412599,45.2048057 52.4713645,45.0896414 C52.6014692,44.9744771 52.7054282,44.810757 52.7832421,44.5991036 C52.8604333,44.3880727 52.8990288,44.1066982 52.8990288,43.7549801 L52.8990288,43.7400398 C52.8990288,43.3982819 52.8604333,43.1193975 52.7832421,42.9033865 C52.7054282,42.686753 52.6014692,42.5186754 52.4713645,42.3979084 C52.3412599,42.2771414 52.19248,42.1943476 52.0256475,42.1489044 C51.8581922,42.1040837 51.6851345,42.0816733 51.5058516,42.0816733 L49.1963396,42.0816733 C49.1066982,42.0816733 49.0332421,42.1190239 48.9765936,42.1943476 C48.9193227,42.2696714 48.8906872,42.3630478 48.8906872,42.473232 L48.8906872,46.7704183 L47.375498,46.7704183 L47.375498,40.7090389 L51.689492,40.7090389 C52.6263696,40.7090389 53.3167331,40.9860558 53.7605826,41.5382222 C54.2050548,42.0916335 54.4266684,42.8255727 54.4266684,43.7400398 L54.4266684,43.7549801 C54.4266684,44.6700698 54.2050548,45.4015189 53.7605826,45.9487052 C53.3167331,46.4971364 52.6263696,46.7704183 51.689492,46.7704183 Z M44.8767429,37.9108566 L45.3286853,36.8251992 C45.3940488,36.694472 45.4469622,36.6116782 45.4874253,36.5761952 C45.5285109,36.5413347 45.6100598,36.5232819 45.7320717,36.5232819 L46.8320469,36.5232819 L45.8540837,34.2461404 L43.8987799,38.9056274 L42.2124003,38.9056274 C42.6687002,37.8604333 43.0801793,36.9204432 43.4468376,36.0862798 C43.6012201,35.7345618 43.7543576,35.3878237 43.9050049,35.0454432 C44.0556524,34.7043077 44.1901146,34.3949203 44.3083914,34.1185259 C44.4260459,33.8421315 44.5237799,33.6155378 44.6015936,33.4399901 C44.6787849,33.2638198 44.7254731,33.1660857 44.7422808,33.1455428 C44.8070218,33.0048556 44.8599353,32.9195716 44.9010209,32.8896912 C44.941484,32.8591882 45.0230328,32.844248 45.1456673,32.844248 L46.8320469,32.844248 L49.532495,38.9056274 L47.8585657,38.9056274 L47.5653635,38.2121514 C47.5,38.0714642 47.4445967,37.9855578 47.4003984,37.9556773 C47.3549552,37.9257968 47.2758964,37.9108566 47.1619771,37.9108566 L44.8767429,37.9108566 Z M45.0902639,46.7704183 L44.7970617,46.0769422 C44.7316982,45.936255 44.6769173,45.8509712 44.6320966,45.8204682 C44.5872759,45.7905877 44.5075946,45.7756475 44.3936752,45.7756475 L42.1084413,45.7756475 L42.5603834,44.6899901 C42.6257469,44.5592629 42.6786604,44.4764692 42.7191235,44.4409861 C42.7602091,44.4061256 42.8417579,44.3880727 42.9637699,44.3880727 L44.063745,44.3880727 L43.0857818,42.1115538 L41.1304781,46.7704183 L39.4440986,46.7704183 C39.9003984,45.7252241 40.3118775,44.7852341 40.6785358,43.9510708 C40.8329182,43.5993527 40.9860558,43.2526145 41.1367031,42.9108566 C41.2873506,42.5690986 41.4218127,42.2597112 41.5400896,41.9833167 C41.6583665,41.7069224 41.7561006,41.4809512 41.8332918,41.3047809 C41.910483,41.1292331 41.9577938,41.0308765 41.9739791,41.0109562 C42.0393426,40.870269 42.0922559,40.784985 42.132719,40.7544821 C42.1731823,40.7246016 42.2547312,40.7090389 42.3773656,40.7090389 L44.063745,40.7090389 L46.7648158,46.7704183 L45.0902639,46.7704183 Z M36.6639691,34.2013197 L37.1159114,33.1306025 C37.1731823,32.9998755 37.224228,32.9195716 37.2690488,32.8896912 C37.3138695,32.8591882 37.3929283,32.844248 37.5074701,32.844248 L43.3123755,32.844248 L42.8598107,33.9149651 C42.7944472,34.0456923 42.7415339,34.125996 42.7010708,34.1558765 C42.6606075,34.1863794 42.5790588,34.2013197 42.4570469,34.2013197 L41.0514193,34.2013197 C40.9617778,34.2013197 40.8864542,34.2392927 40.8254483,34.3146166 C40.7644422,34.3899402 40.7333167,34.4833167 40.7333167,34.593501 L40.7333167,38.9056274 L39.2305777,38.9056274 L39.2305777,34.2013197 L36.6639691,34.2013197 Z M38.8334164,46.7704183 L37.3182271,46.7704183 L37.3182271,44.3880727 L34.6781624,44.3880727 L35.1058266,43.377739 C35.1711903,43.2476344 35.2241036,43.1667082 35.2651892,43.1368277 C35.3056524,43.1063248 35.3872013,43.0913845 35.5092131,43.0913845 L37.3182271,43.0913845 L37.3182271,40.7090389 L38.8334164,40.7090389 L38.8334164,46.7704183 Z M34.3849602,46.7704183 L32.8815986,46.7704183 L32.8815986,40.7090389 L34.3849602,40.7090389 L34.3849602,46.7704183 Z M30.1873755,38.9056274 L30.1873755,33.2214891 C30.1873755,33.1106822 30.2178786,33.0204183 30.2788845,32.9500747 C30.3398904,32.879731 30.4152142,32.844248 30.5048556,32.844248 L32.4358814,32.844248 L34.6719372,37.5037351 L34.6719372,32.844248 L36.1752988,32.844248 L36.1752988,38.5140687 C36.1752988,38.6242531 36.1447959,38.717007 36.0837898,38.7929531 C36.0227839,38.868277 35.9474601,38.9056274 35.8578186,38.9056274 L33.9267928,38.9056274 L31.6901146,34.2461404 L31.6901146,38.9056274 L30.1873755,38.9056274 Z M30.2664343,46.7704183 L27.749004,44.0867778 L27.749004,46.7704183 L26.2456424,46.7704183 L26.2456424,40.7090389 L27.749004,40.7090389 L27.749004,43.4082421 L30.0342381,40.7090389 L31.9528137,40.7090389 L29.3009213,43.6647162 L32.2709163,46.7704183 L30.2664343,46.7704183 Z M23.9610309,46.7704183 L23.6672062,46.0769422 C23.6018425,45.936255 23.5470617,45.8509712 23.502241,45.8204682 C23.4574202,45.7905877 23.3783616,45.7756475 23.2638198,45.7756475 L20.9785857,45.7756475 L21.4311504,44.6899901 C21.4958915,44.5592629 21.5488048,44.4764692 21.5898904,44.4409861 C21.6303536,44.4061256 21.7119025,44.3880727 21.8345369,44.3880727 L22.9338894,44.3880727 L21.9565488,42.1115538 L20.0012449,46.7704183 L18.3148655,46.7704183 C18.7711653,45.7252241 19.1826445,44.7852341 19.5486803,43.9510708 C19.7036853,43.5993527 19.8562002,43.2526145 20.0074701,42.9108566 C20.1581176,42.5690986 20.2925798,42.2597112 20.4108566,41.9833167 C20.5285109,41.7069224 20.6262451,41.4809512 20.7040588,41.3047809 C20.78125,41.1292331 20.8279382,41.0308765 20.8441235,41.0109562 C20.909487,40.870269 20.9624003,40.784985 21.0034861,40.7544821 C21.0439492,40.7246016 21.125498,40.7090389 21.24751,40.7090389 L22.9338894,40.7090389 L25.6349602,46.7704183 L23.9610309,46.7704183 Z M22.9033865,33.9149651 C22.846738,34.0456923 22.7956923,34.125996 22.7508716,34.1558765 C22.7060508,34.1863794 22.6226344,34.2013197 22.5,34.2013197 L19.2617033,34.2013197 C19.1720618,34.2013197 19.0986056,34.2392927 19.0419571,34.3146166 C18.9846862,34.3899402 18.9560508,34.4833167 18.9560508,34.593501 L18.9560508,38.9056274 L17.4533117,38.9056274 L17.4533117,32.844248 L23.3559512,32.844248 L22.9033865,33.9149651 Z M21.901768,36.2369273 C21.8364045,36.3676543 21.783491,36.4479582 21.7424054,36.4778387 C21.7019423,36.5083417 21.6203935,36.5232819 21.4983815,36.5232819 L19.2492529,36.5232819 L19.6775398,35.5129482 C19.7422808,35.3828437 19.7951943,35.3019173 19.8362798,35.2720368 C19.8767429,35.2415339 19.9582918,35.2265936 20.0803037,35.2265936 L22.3294324,35.2265936 L21.901768,36.2369273 Z M25.8976593,34.2461404 L23.9423555,38.9056274 L22.2559761,38.9056274 C22.7122759,37.8604333 23.1237549,36.9204432 23.4904134,36.0862798 C23.6447959,35.7345618 23.7979332,35.3878237 23.9485807,35.0454432 C24.099228,34.7043077 24.2336902,34.3949203 24.3519672,34.1185259 C24.4696215,33.8421315 24.5673555,33.6155378 24.6451694,33.4399901 C24.7223605,33.2638198 24.7690488,33.1660857 24.7858566,33.1455428 C24.8505976,33.0048556 24.9035109,32.9195716 24.9445967,32.8896912 C24.9850598,32.8591882 25.0666086,32.844248 25.189243,32.844248 L26.8756225,32.844248 L29.5760708,38.9056274 L27.9021415,38.9056274 L27.6089393,38.2121514 C27.5435758,38.0714642 27.4881723,37.9855578 27.4439742,37.9556773 C27.3985308,37.9257968 27.3194722,37.9108566 27.2055528,37.9108566 L24.9203187,37.9108566 L25.372261,36.8251992 C25.4376245,36.694472 25.4905378,36.6116782 25.531001,36.5761952 C25.5720867,36.5413347 25.6536354,36.5232819 25.7756475,36.5232819 L26.8756225,36.5232819 L25.8976593,34.2461404 Z M40.0373506,2.75896414 C20.0168078,2.75896414 3.72883474,13.8888198 3.72883474,27.5697211 C3.72883474,41.2506225 20.0168078,52.3804781 40.0373506,52.3804781 C60.0578934,52.3804781 76.3458665,41.2506225 76.3458665,27.5697211 C76.3458665,13.8888198 60.0578934,2.75896414 40.0373506,2.75896414"/>
  </g>
</svg>
