<?xml version="1.0" standalone="no"?>
<!DOCTYPE svg PUBLIC "-//W3C//DTD SVG 20010904//EN"
 "http://www.w3.org/TR/2001/REC-SVG-20010904/DTD/svg10.dtd">
<svg version="1.0" xmlns="http://www.w3.org/2000/svg"
 width="2048.000000pt" height="2048.000000pt" viewBox="0 0 2048.000000 2048.000000"
 preserveAspectRatio="xMidYMid meet">
<metadata>
Created by potrace 1.11, written by Peter Selinger 2001-2013
</metadata>
<g transform="translate(0.000000,2048.000000) scale(0.100000,-0.100000)"
fill="#000000" stroke="none">
<path d="M9790 17094 c-297 -13 -541 -27 -695 -40 -2077 -165 -4002 -769
-5564 -1746 -998 -623 -1811 -1393 -2374 -2249 -265 -402 -477 -830 -619
-1249 -132 -389 -200 -704 -250 -1160 -19 -174 -16 -698 5 -890 107 -972 456
-1835 1082 -2675 504 -677 1179 -1298 1988 -1829 1782 -1171 4086 -1839 6537
-1895 2215 -51 4308 379 6107 1254 1446 704 2613 1677 3339 2786 309 471 553
999 695 1499 127 450 183 857 182 1335 0 356 -24 613 -89 935 -254 1267 -1007
2445 -2197 3438 -1420 1185 -3389 2011 -5567 2336 -445 66 -817 104 -1340 137
-162 10 -1093 20 -1240 13z m1185 -364 c2198 -125 4170 -734 5750 -1775 1535
-1012 2532 -2351 2824 -3794 108 -531 123 -1116 41 -1640 -147 -945 -570
-1824 -1275 -2646 -217 -253 -570 -597 -865 -840 -544 -450 -1232 -882 -1918
-1205 -1410 -662 -2969 -1031 -4692 -1111 -287 -13 -1173 -7 -1410 10 -456 33
-717 60 -1087 112 -3192 448 -5863 2063 -6953 4204 -238 467 -404 974 -479
1460 -73 471 -73 986 -1 1441 129 808 465 1581 999 2294 805 1077 2068 1996
3601 2623 984 402 2131 684 3275 807 338 36 585 53 1070 74 147 6 938 -3 1120
-14z"/>
<path d="M9825 16424 c-1165 -49 -2110 -196 -3090 -479 -1775 -513 -3263
-1394 -4264 -2524 -599 -676 -1018 -1465 -1190 -2241 -78 -351 -104 -590 -104
-950 0 -386 36 -689 125 -1045 372 -1493 1538 -2842 3280 -3798 1522 -835
3418 -1316 5343 -1355 894 -19 1684 37 2500 174 2451 414 4552 1518 5778 3036
572 709 935 1491 1067 2298 73 452 71 951 -6 1410 -378 2250 -2570 4198 -5675
5045 -796 217 -1628 352 -2531 410 -216 14 -1045 27 -1233 19z m1225 -1664 l0
-360 -69 0 -69 0 -5 -177 c-2 -98 -6 -187 -8 -198 -4 -18 2 -20 61 -22 531
-21 1376 -109 1843 -193 61 -11 114 -20 119 -20 4 0 8 222 8 494 0 471 1 495
19 517 l19 24 567 3 c342 1 564 -1 561 -7 -3 -5 -217 -156 -476 -336 l-470
-327 2 -206 3 -205 155 -33 c489 -105 1026 -261 1363 -397 l87 -35 0 439 c0
474 2 489 52 503 33 8 1118 7 1118 -1 -1 -5 -214 -156 -475 -337 l-475 -330 0
-183 0 -182 139 -71 c589 -298 939 -633 1037 -990 28 -102 26 -302 -4 -400
-91 -289 -327 -549 -727 -802 -139 -87 -526 -279 -710 -351 -914 -359 -2085
-593 -3410 -681 -747 -50 -1655 -47 -2415 9 -1633 121 -3086 488 -3931 995
-432 259 -702 555 -779 854 -27 106 -27 264 -1 368 70 273 309 555 663 781
l97 62 0 568 c1 628 0 618 62 631 45 9 1109 8 1109 -1 0 -5 -214 -156 -475
-337 l-475 -330 0 -202 0 -203 153 74 c367 176 819 332 1331 459 l211 53 5
549 c3 302 9 557 14 567 5 10 20 23 33 28 29 11 1123 12 1123 2 0 -5 -214
-156 -475 -338 l-475 -329 0 -213 c0 -178 2 -213 14 -213 8 0 48 7 88 15 519
110 1356 212 1998 245 118 6 234 13 257 16 40 5 42 6 33 30 -6 14 -10 102 -10
195 l0 169 -60 0 -60 0 0 353 c0 195 3 357 7 360 3 4 388 7 855 7 l848 0 0
-360z m-5012 -5947 c-71 -173 -95 -221 -116 -232 -14 -7 -159 -11 -451 -11
-236 0 -437 -3 -446 -6 -44 -17 -45 -32 -45 -619 l0 -555 -187 2 -188 3 -3
758 -2 757 739 0 740 0 -41 -97z m1252 -647 c182 -407 332 -748 336 -758 5
-18 -4 -18 -202 -16 l-207 3 -49 109 c-26 61 -53 115 -58 120 -7 7 -124 13
-325 16 l-314 5 62 148 c34 82 72 159 84 173 21 24 25 24 181 24 l160 0 -120
281 c-67 154 -124 277 -128 272 -4 -4 -109 -253 -235 -553 -125 -300 -234
-557 -242 -572 l-14 -28 -204 0 c-113 0 -205 4 -205 9 0 10 565 1304 617 1414
21 43 45 83 53 88 8 5 120 8 248 6 l233 -2 329 -739z m1338 161 l277 -577 3
580 2 580 185 0 185 0 0 -731 0 -731 -29 -29 -29 -29 -250 0 -249 0 -279 582
-279 581 -3 -581 -2 -582 -185 0 -185 0 0 735 0 736 25 25 24 24 256 -2 256
-3 277 -578z m2406 501 c-20 -46 -47 -111 -61 -145 -13 -34 -35 -73 -48 -87
l-24 -26 -206 0 c-129 0 -214 -4 -227 -11 -47 -25 -48 -42 -48 -624 l0 -545
-185 0 -185 0 0 590 0 590 -320 0 c-176 0 -320 2 -320 4 0 10 113 273 128 298
9 15 23 29 31 31 9 3 350 5 758 6 l742 1 -35 -82z m925 55 c56 -122 661 -1484
661 -1488 0 -3 -93 -4 -207 -3 l-207 3 -46 102 c-69 158 -28 143 -391 143
-171 0 -309 4 -307 8 68 170 126 297 144 317 23 25 25 25 183 25 l159 0 -120
281 c-67 154 -124 277 -128 272 -4 -4 -105 -242 -225 -528 -120 -286 -228
-544 -241 -572 l-23 -53 -205 0 c-133 0 -206 4 -206 10 0 6 97 232 216 503
119 270 251 573 294 672 93 216 145 321 162 328 7 3 117 6 244 6 l231 1 12
-27z m2191 18 c0 -19 -120 -294 -136 -312 -16 -17 -41 -19 -451 -21 l-435 -3
-29 -33 c-23 -26 -29 -42 -29 -78 0 -50 20 -97 47 -110 10 -5 223 -11 473 -14
l455 -5 55 -26 c96 -45 167 -132 211 -259 31 -92 32 -247 2 -345 -52 -166
-155 -268 -298 -294 -89 -17 -1269 -15 -1262 2 44 115 127 295 144 313 l22 24
491 0 c541 0 535 -1 561 62 27 66 4 154 -48 177 -16 7 -157 11 -423 11 -413 0
-466 4 -548 43 -100 46 -197 169 -222 282 -18 81 -14 221 9 295 47 151 165
260 313 289 59 12 1098 13 1098 2z m856 -311 c114 -193 192 -316 198 -310 5 5
89 148 186 317 l176 308 192 3 c106 1 192 0 192 -4 0 -3 -128 -221 -285 -485
l-285 -478 0 -276 0 -275 -187 2 -188 3 -3 292 -2 293 -281 457 c-155 252
-283 461 -286 466 -2 4 83 7 190 7 l194 0 189 -320z m-9205 -327 c-55 -139
-103 -240 -122 -255 -19 -16 -50 -18 -324 -18 l-304 0 60 137 c32 75 66 147
74 160 l15 23 310 0 310 0 -19 -47z m187 -1350 c6 -16 156 -355 335 -755 l325
-728 -209 0 -210 0 -20 48 c-65 154 -81 181 -112 191 -18 7 -142 11 -318 11
-159 0 -289 3 -289 6 0 19 124 295 141 312 19 21 29 22 180 22 149 0 161 1
155 18 -24 64 -232 542 -236 542 -3 0 -114 -258 -246 -572 l-240 -573 -212 -3
-211 -2 16 37 c8 21 127 292 263 603 136 311 273 624 305 697 31 72 66 141 76
152 19 20 29 21 258 21 l239 0 10 -27z m1194 -305 l3 -331 280 331 280 332
239 0 c227 0 238 -1 224 -17 -8 -10 -152 -171 -319 -358 -168 -187 -308 -346
-313 -353 -7 -11 172 -203 678 -729 l50 -53 -250 0 -251 0 -309 330 -309 331
-3 -331 -2 -330 -190 0 -190 0 0 755 0 755 190 0 190 0 2 -332z m1658 -423 l0
-755 -190 0 -190 0 0 755 0 755 190 0 190 0 0 -755z m1110 0 l0 -755 -190 0
-190 0 0 295 0 295 -330 0 c-181 0 -330 1 -330 3 0 2 27 66 60 143 36 83 70
148 85 162 26 22 31 22 271 22 l244 0 0 295 0 295 190 0 190 0 0 -755z m1618
58 c171 -384 322 -724 336 -755 l26 -58 -209 0 -208 0 -48 110 c-26 60 -54
115 -63 122 -11 10 -92 14 -324 16 -236 2 -309 6 -305 15 90 216 122 286 139
304 21 22 28 23 180 23 87 0 158 3 158 8 0 13 -233 552 -239 552 -3 0 -114
-259 -246 -575 l-240 -575 -213 0 c-117 0 -211 3 -209 8 6 9 535 1214 572
1302 37 89 74 161 93 183 14 15 39 17 252 17 l237 0 311 -697z m1826 673 c231
-69 371 -234 433 -511 22 -98 21 -344 -2 -449 -45 -212 -152 -370 -303 -449
-130 -68 -144 -70 -584 -74 -219 -3 -398 -2 -398 0 0 11 111 270 127 298 10
16 27 32 38 34 11 2 128 6 260 8 293 6 325 13 401 91 70 71 85 120 91 279 8
189 -17 287 -91 365 -77 83 -131 92 -526 92 l-319 0 -28 -24 -28 -24 -3 -561
-2 -561 -190 0 -190 0 0 755 0 756 628 -4 c564 -3 633 -5 686 -21z m1918 -731
l336 -755 -210 2 -211 3 -41 96 c-23 54 -48 108 -57 120 l-16 24 -312 3 c-171
2 -311 5 -311 6 0 6 108 263 119 284 27 51 33 52 203 52 148 0 160 1 154 18
-24 63 -232 542 -236 542 -3 0 -113 -257 -245 -571 -132 -314 -244 -573 -250
-575 -6 -3 -101 -3 -212 -2 l-201 3 165 375 c90 206 223 510 295 675 143 330
182 411 205 438 14 15 40 17 252 17 l237 0 336 -755z"/>
<path d="M9788 14210 l-3 -190 401 0 402 0 -9 38 c-5 20 -9 106 -9 190 l0 152
-390 0 -389 0 -3 -190z"/>
<path d="M9435 13669 c-551 -27 -1099 -82 -1555 -154 -227 -37 -630 -116 -630
-125 0 -8 354 -839 370 -869 8 -16 27 -15 262 15 614 78 1401 134 1874 134
100 0 196 3 213 6 l31 7 0 498 0 499 -202 -1 c-112 -1 -275 -6 -363 -10z"/>
<path d="M10332 13179 l3 -504 280 -6 c586 -14 1230 -62 1835 -138 41 -5 77
-8 79 -5 2 2 93 205 202 452 188 427 196 447 176 454 -36 13 -409 77 -627 108
-536 77 -1108 124 -1663 137 l-287 6 2 -504z"/>
<path d="M13065 12918 c-104 -237 -191 -434 -193 -437 -1 -4 127 -28 285 -54
532 -89 998 -187 1533 -323 196 -50 307 -83 331 -99 44 -29 69 -79 69 -138 0
-80 -75 -157 -152 -157 -22 0 -153 29 -291 65 -334 85 -627 153 -959 219 -261
53 -841 152 -921 158 l-38 3 -209 -474 c-116 -261 -208 -476 -207 -478 2 -1
59 -14 128 -28 194 -39 335 -93 363 -137 17 -27 -8 -65 -61 -92 -204 -103
-719 -175 -1618 -228 -301 -18 -1755 -18 -2070 0 -1145 64 -1760 181 -1686
321 23 42 179 101 364 137 48 9 87 20 87 24 0 3 -84 202 -186 441 -102 239
-191 448 -199 465 l-13 32 -88 -14 c-544 -87 -1283 -254 -1692 -385 -112 -35
-167 -37 -212 -6 -50 33 -72 70 -78 126 -4 41 0 58 22 95 33 57 63 71 298 140
377 111 874 226 1323 306 127 22 244 44 261 48 l31 7 -173 405 c-95 223 -179
417 -186 431 l-13 27 -165 -48 c-713 -203 -1241 -465 -1516 -752 -205 -213
-274 -443 -199 -667 121 -358 604 -695 1373 -956 1302 -442 3223 -620 5052
-469 1697 140 3077 555 3616 1089 176 174 254 333 254 515 0 488 -665 947
-1832 1265 -112 30 -212 55 -223 55 -17 0 -50 -69 -210 -432z"/>
<path d="M9830 12343 c-419 -6 -952 -36 -1395 -78 -226 -22 -666 -73 -672 -78
-1 -2 397 -939 401 -944 0 0 59 5 130 12 376 40 819 64 1309 72 l397 6 0 509
c0 279 -3 507 -7 506 -5 -1 -78 -3 -163 -5z"/>
<path d="M10332 11839 l3 -504 285 -7 c440 -10 784 -29 1163 -64 98 -9 180
-14 183 -11 4 3 385 860 420 943 5 11 -26 15 -396 54 -455 47 -921 77 -1358
87 l-302 6 2 -504z"/>
</g>
</svg>
