<svg xmlns="http://www.w3.org/2000/svg" xmlns:xlink="http://www.w3.org/1999/xlink" width="656" height="658" xmlns:v="https://vecta.io/nano"><style><![CDATA[.B{fill:#fff}.C{mask:url(#AW)}.D{fill:#4d9d52}]]></style><defs><path d="M658 55.867v55.867c-16.436 17.123-39.609 32.695-68.067 46.077l.003-.012-3.247 1.515c-31.716 14.526-69.747 26.375-112.159 34.697l-2.773.529-.001.009c-30.368 5.823-62.93 9.844-97.008 11.757l.001-.007-2.644.147v.003c-12.944.685-26.09 1.064-39.422 1.123v-23.956h97.395c1.302 0 2.356-1.056 2.356-2.358V90.793c0-1.302-1.054-2.358-2.356-2.358s-2.357 1.056-2.357 2.358v88.108H230.279V98.909h6.419v-5.18h-6.419v-2.936a2.36 2.36 0 0 0-2.357-2.358 2.36 2.36 0 0 0-2.357 2.358v90.467a2.36 2.36 0 0 0 2.357 2.358h97.395v23.956c-13.332-.059-26.478-.438-39.422-1.123v-.003l-2.645-.147.001.007c-34.078-1.913-66.637-5.935-97.006-11.757l-.001-.009-2.773-.529c-42.412-8.321-80.446-20.172-112.16-34.697h-.001l-3.244-1.515.004.012c-28.413-13.359-51.56-28.904-67.99-45.995V0H658v55.867z" id="A"/><linearGradient x1="49.9939993%" y1="-24.6%" x2="49.9939993%" y2="31.7178%" id="B"><stop stop-color="#fffffe" offset="0%"/><stop stop-color="#9cd4da" offset="100%"/></linearGradient><linearGradient x1="50%" y1="110.207785%" x2="50%" y2="-30.4328101%" id="C"><stop stop-color="#4e9d51" offset="0%"/><stop stop-color="#2a542e" offset="100%"/></linearGradient><path d="M104 95.315H2.887c-1.302 0-2.358-1.055-2.358-2.355V2.588C.529 1.287 1.585.233 2.887.233s2.358 1.055 2.358 2.355v88.015H104v4.712" id="D"/><linearGradient x1="-50.5738059%" y1="50%" x2="113.376931%" y2="50%" id="E"><stop stop-color="#4e9d51" offset="0%"/><stop stop-color="#427d43" offset="100%"/></linearGradient><path id="F" d="M.079.133H658v310.099H.079z"/><path id="G" d="M.079 0H658v186.918H.079z"/><path d="M.079 49.528V.709C7.375 3.72 15.019 6.63 22.981 9.432c2.685 9.53 7.872 27.047 15.347 48.3-13.288-2.568-26.047-5.305-38.25-8.204h0zM658 .676v48.833c-12.227 2.906-25.012 5.649-38.328 8.223 7.475-21.253 12.663-38.77 15.347-48.3C643.009 6.62 650.68 3.699 658 .676zM330.316 82.711v-29c32.237-.034 63.627-1.291 93.81-3.647l-3.657 30.42c-29.21 1.441-59.35 2.206-90.153 2.227zm-2.632 0c-30.802-.021-60.944-.786-90.154-2.227l-2.532-20.651-1.125-9.769c30.184 2.356 61.574 3.613 93.811 3.647v29zm95.456-2.361l3.658-30.497c30.434-2.445 59.617-6.007 87.163-10.553l-7.705 34.772c-26.645 2.705-54.434 4.818-83.116 6.278zm-188.28 0c-28.682-1.459-56.471-3.573-83.117-6.278l-3.318-14.373-4.386-20.399c27.547 4.545 56.729 8.107 87.163 10.553l3.658 30.497zm-85.889-6.561c-38.535-3.983-74.663-9.208-107.65-15.484-5.764-16.293-10.206-30.479-13.224-40.66l-2.081-7.157c33.387 11.509 72.292 21.129 115.241 28.347l4.599 21.437 3.115 13.516zm360.058 0l3.115-13.516 4.599-21.437c42.949-7.219 81.854-16.838 115.241-28.347-2.858 10.037-8.028 27.244-15.305 47.817-32.988 6.275-69.114 11.5-107.65 15.484z" id="H"/><linearGradient x1="49.9939993%" y1="52.6%" x2="49.9939993%" y2="32.0844%" id="I"><stop stop-color="#679d9b" offset="0%"/><stop stop-color="#547c7a" offset="100%"/></linearGradient><path d="M19.199 49.241l-3.032-.575C8.593 27.359 3.337 9.799.617.245l3.075 1.059L5.8 8.479c3.059 10.207 7.559 24.428 13.399 40.762" id="J"/><linearGradient x1="1668.60649%" y1="262.679593%" x2="1668.60649%" y2="-12.7937267%" id="K"><stop stop-color="#7cbfbb" offset="0%"/><stop stop-color="#699794" offset="100%"/></linearGradient><path d="M.801 49.241C8.175 28.616 13.412 11.366 16.308 1.304L19.383.245c-2.72 9.554-7.976 27.114-15.549 48.421l-3.032.575" id="L"/><linearGradient x1="-1568.60649%" y1="262.679593%" x2="-1568.60649%" y2="-12.7937267%" id="M"><stop stop-color="#7cbfbb" offset="0%"/><stop stop-color="#699794" offset="100%"/></linearGradient><path d="M11.075 36.255l-2.808-.285-3.156-13.608L.451.778l2.819.468 4.444 20.538 3.361 14.471" id="N"/><linearGradient x1="1790.43675%" y1="280.89172%" x2="1790.43675%" y2="-101.19194%" id="O"><stop stop-color="#7cbfbb" offset="0%"/><stop stop-color="#699794" offset="100%"/></linearGradient><path d="M.924 36.255L8.731 1.246l2.819-.468-4.66 21.583-3.156 13.608-2.809.285" id="P"/><linearGradient x1="-1690.21207%" y1="280.89172%" x2="-1690.21207%" y2="-101.19194%" id="Q"><stop stop-color="#7cbfbb" offset="0%"/><stop stop-color="#699794" offset="100%"/></linearGradient><path d="M7.325 31.104l-2.705-.135L.913.298 3.62.51l1.14 9.825 2.565 20.769" id="R"/><linearGradient x1="1545.33167%" y1="287.158283%" x2="1545.33167%" y2="-152.373811%" id="S"><stop stop-color="#7cbfbb" offset="0%"/><stop stop-color="#699794" offset="100%"/></linearGradient><path d="M.673 31.104L4.379.51 7.087.298 3.38 30.969l-2.707.135" id="T"/><linearGradient x1="-1445.0104%" y1="287.158283%" x2="-1445.0104%" y2="-152.373811%" id="U"><stop stop-color="#7cbfbb" offset="0%"/><stop stop-color="#699794" offset="100%"/></linearGradient><path d="M1.5 29.691H0V.231h3v29.46H1.5" id="V"/><linearGradient x1="50%" y1="290.006789%" x2="50%" y2="-174.252093%" id="W"><stop stop-color="#7cbfbb" offset="0%"/><stop stop-color="#699794" offset="100%"/></linearGradient><path id="X" d="M.079.132H658v161.767H.079z"/><path d="M.079 11.593V.274C25.344 12.182 55.904 22.67 90.549 31.32l2.911 9.161 2.977.676-2.889-9.095c30.394 7.445 63.871 13.488 99.64 17.854l1.379 7.528 2.731.301-1.373-7.499c28.693 3.423 58.849 5.771 90.043 6.902l.397 7.011 2.641.095-.397-7.013c13.286.451 26.76.682 40.391.682s27.104-.231 40.392-.682l-.397 7.013 2.64-.095.397-7.011c31.193-1.131 61.352-3.48 90.045-6.902l-1.374 7.499 2.731-.301 1.379-7.528c35.769-4.367 69.245-10.41 99.64-17.854l-2.889 9.095 2.977-.676 2.911-9.161C602.132 22.661 632.72 12.16 658 .237V11.56c-7.32 3.04-14.991 5.978-22.981 8.806l-3.035 1.063c-33.387 11.575-72.292 21.249-115.241 28.509l-2.782.467c-27.545 4.571-56.729 8.154-87.163 10.613l-2.673.213c-30.593 2.401-62.427 3.668-95.126 3.668s-64.534-1.267-95.127-3.668l-2.671-.213c-30.434-2.459-59.616-6.042-87.163-10.613l-2.782-.467c-42.949-7.26-81.854-16.934-115.241-28.509l-3.035-1.063C15.019 17.548 7.375 14.621.079 11.593h0z" id="Y"/><linearGradient x1="49.9939993%" y1="24.6%" x2="49.9939993%" y2="45.9606%" id="Z"><stop stop-color="#375453" offset="0%"/><stop stop-color="#2a4241" offset="100%"/></linearGradient><path d="M43.376 67.439a1009.14 1009.14 0 0 1-41.927-.867L.322 46.845c14.114.741 28.481 1.123 43.054 1.123s28.939-.382 43.054-1.123l-1.126 19.727a1009.14 1009.14 0 0 1-41.927.867m44.565-.981l1.128-19.755c34.037-1.9 66.559-5.895 96.89-11.679l-4.164 22.556c-29.66 4.399-61.124 7.428-93.854 8.878m96.601-9.29l4.188-22.679C231.09 26.223 269.076 14.453 300.753.025l-10.538 32.9c-31.275 10.123-66.911 18.359-105.673 24.243" id="a"/><linearGradient x1="14.3305902%" y1="-105.755354%" x2="14.3305902%" y2="223.731378%" id="b"><stop stop-color="#375453" offset="0%"/><stop stop-color="#2a4241" offset="100%"/></linearGradient><path d="M.412 23.726L4.636 1.03 7.447.492l-4.248 22.82-2.787.414" id="c"/><linearGradient x1="-1996.00076%" y1="-458.002039%" x2="-1996.00076%" y2="503.924567%" id="d"><stop stop-color="#273e3d" offset="0%"/><stop stop-color="#1e3030" offset="100%"/></linearGradient><path d="M98.808 31.764c-32.764-1.464-64.261-4.52-93.95-8.961L.688.034c30.364 5.838 62.918 9.871 96.991 11.789l1.129 19.941" id="e"/><linearGradient x1="145.468077%" y1="-338.143772%" x2="145.468077%" y2="368.474915%" id="f"><stop stop-color="#375453" offset="0%"/><stop stop-color="#2a4241" offset="100%"/></linearGradient><path d="M.186 80.216l10.712-33.767C39.371 33.005 62.556 17.36 79 .157v43.684C57.958 57.552 31.283 69.833.186 80.216" id="g"/><linearGradient x1="-317.64814%" y1="-30.3558448%" x2="-317.64814%" y2="250.251107%" id="h"><stop stop-color="#375453" offset="0%"/><stop stop-color="#2a4241" offset="100%"/></linearGradient><path d="M.123 20.879L1.194 1.08l2.51-.143-1.072 19.828-2.509.114" id="i"/><linearGradient x1="-1113.36824%" y1="-593.747532%" x2="-1113.36824%" y2="524.174016%" id="j"><stop stop-color="#273e3d" offset="0%"/><stop stop-color="#1e3030" offset="100%"/></linearGradient><path d="M.06 34.914L10.749 1.667 14.036.158 3.188 33.895.06 34.914" id="k"/><linearGradient x1="-1791.59512%" y1="-202.935138%" x2="-1791.59512%" y2="442.859859%" id="l"><stop stop-color="#273e3d" offset="0%"/><stop stop-color="#1e3030" offset="100%"/></linearGradient><path d="M3.878 20.879l-2.51-.114L.295.937l2.511.143 1.071 19.799" id="m"/><linearGradient x1="1212.97976%" y1="-593.747532%" x2="1212.97976%" y2="524.174016%" id="n"><stop stop-color="#273e3d" offset="0%"/><stop stop-color="#1e3030" offset="100%"/></linearGradient><path d="M.079 43.838V.238c16.413 17.15 39.537 32.748 67.922 46.153l10.695 33.726C47.684 69.761 21.077 57.512.079 43.838h0zm187.397 61.788c-38.77-5.944-74.415-14.264-105.697-24.49L71.238 47.9c31.684 14.574 69.68 26.466 112.049 34.816l4.189 22.91z" id="o"/><linearGradient x1="49.9939993%" y1="13.3%" x2="49.9939993%" y2="47.2714%" id="p"><stop stop-color="#375453" offset="0%"/><stop stop-color="#2a4241" offset="100%"/></linearGradient><path d="M7.589 23.726l-2.788-.414L.553.492l2.811.538 4.225 22.696" id="q"/><linearGradient x1="2095.60356%" y1="-458.002039%" x2="2095.60356%" y2="503.924567%" id="r"><stop stop-color="#273e3d" offset="0%"/><stop stop-color="#1e3030" offset="100%"/></linearGradient><path d="M14.939 34.914l-3.127-1.019L.965.158l3.284 1.509 10.689 33.247" id="s"/><linearGradient x1="1891.94656%" y1="-202.935138%" x2="1891.94656%" y2="442.859859%" id="t"><stop stop-color="#273e3d" offset="0%"/><stop stop-color="#1e3030" offset="100%"/></linearGradient><path id="u" d="M.079.994H658v94.862H.079z"/><path id="v" d="M.079.659H658V286H.079z"/><path id="w" d="M329 107.687C170.794 107.687 36.658 62.583-10.113.132v104.303C68.092 139.377 190.891 161.899 329 161.899s260.908-22.522 339.113-57.464V.132C621.342 62.583 487.206 107.687 329 107.687"/></defs><g transform="translate(-1)" fill="none" fill-rule="evenodd"><mask id="x" class="B"><use xlink:href="#A"/></mask><path fill="url(#B)" mask="url(#x)" d="M.079 658.228H658V0H.079z"/><path d="M229 99h8v-5h-8zm194 0h8v-5h-8z" fill="#2c5830"/><path d="M326 262h7v-81h-7z" class="D"/><path fill="url(#C)" d="M326 198h7v-15h-7z"/><path d="M417.57 177H239.432c-3.552 0-6.432-2.888-6.432-6.449V86.448A6.44 6.44 0 0 1 239.432 80H417.57a6.44 6.44 0 0 1 6.43 6.448v84.103c0 3.561-2.878 6.449-6.43 6.449m12.073 6H227.358c-1.302 0-2.358-1.054-2.358-2.353V90.353c0-1.299 1.056-2.353 2.358-2.353s2.358 1.054 2.358 2.353v87.939h197.568V90.353c0-1.299 1.053-2.353 2.358-2.353S432 89.054 432 90.353v90.293c0 1.299-1.055 2.353-2.357 2.353" class="D"/><g fill="#fffffe"><path d="M414.962 169.554v-.445H243.036a3.15 3.15 0 0 1-3.145-3.146V90.036a3.15 3.15 0 0 1 3.145-3.146h171.926a3.15 3.15 0 0 1 3.146 3.146v75.927a3.15 3.15 0 0 1-3.146 3.146V170a4.04 4.04 0 0 0 4.038-4.037V90.036A4.04 4.04 0 0 0 414.962 86H243.036c-2.229 0-4.036 1.807-4.036 4.036v75.927a4.04 4.04 0 0 0 4.036 4.037h171.926v-.446"/><path d="M295.161 170h.678V87h-.678zm67 0h.678V87h-.678zM296 128.839h66v-.678h-66z"/></g><g transform="translate(225 88)"><mask id="y" class="B"><use xlink:href="#D"/></mask><path d="M104 95.315H2.887c-1.302 0-2.358-1.055-2.358-2.355V2.588C.529 1.287 1.585.233 2.887.233s2.358 1.055 2.358 2.355v88.015H104v4.712" fill="url(#E)" mask="url(#y)"/></g><g transform="translate(0 100)"><mask id="z" class="B"><use xlink:href="#F"/></mask><path d="M329 107.847c-158.206 0-292.342-45.17-339.113-107.714v310.099h678.227V.133C621.342 62.677 487.206 107.847 329 107.847" fill="#679d9b" mask="url(#z)"/></g><g fill="#7cbfbb"><path d="M21 209.653c.007.026 6.468 25.112 18.539 58.938S69.284 344.979 91.767 380L94 378.584c-22.305-34.735-39.934-77.155-51.965-110.873a835.17 835.17 0 0 1-13.75-42.009l-3.529-12.28-.893-3.29-.298-1.132-2.565.653M634.435 209l-.298 1.132c-1.492 5.606-8.562 31.428-20.493 63.999S584.912 346.02 564 378.584l2.233 1.416c22.484-35.021 40.155-77.582 52.229-111.409s18.532-58.912 18.539-58.938l-2.565-.653"/><path d="M134 209.419c.003.018 4.071 25.142 11.669 59.018S164.394 344.936 178.544 380l2.456-.984c-14.059-34.828-25.168-77.357-32.748-111.155-3.791-16.9-6.701-31.621-8.665-42.113l-2.224-12.313-.562-3.297-.189-1.138-2.612.419M521.388 209l-.189 1.138c-1.876 11.241-17.83 103.564-44.199 168.879l2.454.984c14.152-35.064 25.276-77.685 32.876-111.563s11.667-59 11.67-59.018l-2.612-.419"/><path d="M226 209.221c.004.028 8.546 100.035 23.403 169.779l2.597-.541c-7.401-34.735-13.244-77.116-17.232-110.797l-4.558-41.966-1.169-12.271-.396-4.425-2.645.221M429.356 209c-.001.004-.134 1.557-.396 4.425-1.836 20.067-10.006 104.239-22.96 165.033l2.598.541c14.857-69.744 23.4-169.752 23.402-169.779l-2.644-.221"/></g><g transform="translate(0 236)"><mask id="AA" class="B"><use xlink:href="#G"/></mask><path fill="#7cbfbb" mask="url(#AA)" d="M327.684 140.47h2.632V0h-2.632z"/><path fill="#375453" mask="url(#AA)" d="M.079 186.918H658v-72.85H.079z"/></g><g transform="translate(0 208)"><mask id="AB" class="B"><use xlink:href="#H"/></mask><path fill="url(#I)" mask="url(#AB)" d="M.079 448.875H658v-656.25H.079z"/></g><g transform="translate(22 217)"><mask id="AC" class="B"><use xlink:href="#J"/></mask><path d="M19.199 49.241l-3.032-.575C8.593 27.359 3.337 9.799.617.245l3.075 1.059L5.8 8.479c3.059 10.207 7.559 24.428 13.399 40.762" fill="url(#K)" mask="url(#AC)"/></g><g transform="translate(616 217)"><mask id="AD" class="B"><use xlink:href="#L"/></mask><path d="M.801 49.241C8.175 28.616 13.412 11.366 16.308 1.304L19.383.245c-2.72 9.554-7.976 27.114-15.549 48.421l-3.032.575" fill="url(#M)" mask="url(#AD)"/></g><g transform="translate(141 246)"><mask id="AE" class="B"><use xlink:href="#N"/></mask><path d="M11.075 36.255l-2.808-.285-3.156-13.608L.451.778l2.819.468 4.444 20.538 3.361 14.471" fill="url(#O)" mask="url(#AE)"/></g><g transform="translate(505 246)"><mask id="AF" class="B"><use xlink:href="#P"/></mask><path d="M.924 36.255L8.731 1.246l2.819-.468-4.66 21.583-3.156 13.608-2.809.285" fill="url(#Q)" mask="url(#AF)"/></g><g transform="translate(230 258)"><mask id="AG" class="B"><use xlink:href="#R"/></mask><path d="M7.325 31.104l-2.705-.135L.913.298 3.62.51l1.14 9.825 2.565 20.769" fill="url(#S)" mask="url(#AG)"/></g><g transform="translate(420 258)"><mask id="AH" class="B"><use xlink:href="#T"/></mask><path d="M.673 31.104L4.379.51 7.087.298 3.38 30.969l-2.707.135" fill="url(#U)" mask="url(#AH)"/></g><g transform="translate(328 261)"><mask id="AI" class="B"><use xlink:href="#V"/></mask><path d="M1.5 29.691H0V.231h3v29.46H1.5" fill="url(#W)" mask="url(#AI)"/></g><g transform="translate(0 100)"><mask id="AJ" class="B"><use xlink:href="#X"/></mask><g fill="#375453"><use xlink:href="#w" mask="url(#AJ)"/><use xlink:href="#w" mask="url(#AJ)"/></g></g><g transform="translate(0 197)"><mask id="AK" class="B"><use xlink:href="#Y"/></mask><path fill="url(#Z)" mask="url(#AK)" d="M.079 462.32H658v-660H.079z"/></g><path d="M475 194l-2.807.532L461 255l2.765-.301L475 194m-106 67l2.752-.095L375 206l-2.756.148L369 261m221-103l-3.204 1.508L562 238l2.938-.671L590 158m-304.243 48.148L283 206l3.248 54.905L289 261l-3.243-54.852m-99.95-11.616L183 194l11.235 60.699L197 255l-11.193-60.468m-92.745 42.797L96 238l-24.799-78.492L68 158l25.062 79.329" fill="#273e3d"/><g transform="translate(286 159)"><mask id="AL" class="B"><use xlink:href="#a"/></mask><path d="M43.376 67.439a1009.14 1009.14 0 0 1-41.927-.867L.322 46.845c14.114.741 28.481 1.123 43.054 1.123s28.939-.382 43.054-1.123l-1.126 19.727a1009.14 1009.14 0 0 1-41.927.867m44.565-.981l1.128-19.755c34.037-1.9 66.559-5.895 96.89-11.679l-4.164 22.556c-29.66 4.399-61.124 7.428-93.854 8.878m96.601-9.29l4.188-22.679C231.09 26.223 269.076 14.453 300.753.025l-10.538 32.9c-31.275 10.123-66.911 18.359-105.673 24.243" fill="url(#b)" mask="url(#AL)"/></g><g transform="translate(467 193)"><mask id="AM" class="B"><use xlink:href="#c"/></mask><path d="M.412 23.726L4.636 1.03 7.447.492l-4.248 22.82-2.787.414" fill="url(#d)" mask="url(#AM)"/></g><g transform="translate(186 194)"><mask id="AN" class="B"><use xlink:href="#e"/></mask><path d="M98.808 31.764c-32.764-1.464-64.261-4.52-93.95-8.961L.688.034c30.364 5.838 62.918 9.871 96.991 11.789l1.129 19.941" fill="url(#f)" mask="url(#AN)"/></g><g transform="translate(579 111)"><mask id="AO" class="B"><use xlink:href="#g"/></mask><path d="M.186 80.216l10.712-33.767C39.371 33.005 62.556 17.36 79 .157v43.684C57.958 57.552 31.283 69.833.186 80.216" fill="url(#h)" mask="url(#AO)"/></g><g transform="translate(371 205)"><mask id="AP" class="B"><use xlink:href="#i"/></mask><path d="M.123 20.879L1.194 1.08l2.51-.143-1.072 19.828-2.509.114" fill="url(#j)" mask="url(#AP)"/></g><g transform="translate(576 158)"><mask id="AQ" class="B"><use xlink:href="#k"/></mask><path d="M.06 34.914L10.749 1.667 14.036.158 3.188 33.895.06 34.914" fill="url(#l)" mask="url(#AQ)"/></g><g transform="translate(283 205)"><mask id="AR" class="B"><use xlink:href="#m"/></mask><path d="M3.878 20.879l-2.51-.114L.295.937l2.511.143 1.071 19.799" fill="url(#n)" mask="url(#AR)"/></g><g transform="translate(0 111)"><mask id="AS" class="B"><use xlink:href="#o"/></mask><path fill="url(#p)" mask="url(#AS)" d="M.079 548.531h657.264v-660.494H.079z"/></g><g transform="translate(183 193)"><mask id="AT" class="B"><use xlink:href="#q"/></mask><path d="M7.589 23.726l-2.788-.414L.553.492l2.811.538 4.225 22.696" fill="url(#r)" mask="url(#AT)"/></g><g transform="translate(67 158)"><mask id="AU" class="B"><use xlink:href="#s"/></mask><path d="M14.939 34.914l-3.127-1.019L.965.158l3.284 1.509 10.689 33.247" fill="url(#t)" mask="url(#AU)"/></g><g transform="translate(0 371)"><mask id="AV" class="B"><use xlink:href="#u"/></mask><g fill="#f6c042"><path d="M329 82.528c123.226 0 240.591 4.747 347.294 13.328V16.241C571.524 6.479 453.646.994 329 .994S86.474 6.479-18.294 16.241v79.616C88.408 87.276 205.775 82.528 329 82.528" mask="url(#AV)"/><path d="M676.292 16.241v79.614c-36.033-2.893-73.275-5.352-111.557-7.338-49.89-2.591-101.516-4.379-154.498-5.287L329 82.534l-81.237.697c-52.982.907-104.609 2.696-154.498 5.287l-111.557 7.338V16.241a3248.26 3248.26 0 0 1 92.883-7.285h.013c52.482-3.393 107.425-5.76 164.237-6.983L329 .999l90.159.973c56.812 1.223 111.768 3.59 164.25 6.983l92.883 7.285" mask="url(#AV)"/></g></g><path d="M248 454.686c-52.933.912-104.513 2.71-154.356 5.314L75 380.02c52.434-3.411 107.326-5.79 164.086-7.02L248 454.686" fill="#e6783f"/><g transform="translate(0 372)"><mask id="AW" class="B"><use xlink:href="#v"/></mask><path d="M583.409 7.657l-18.674 79.737c-49.89-2.596-101.516-4.389-154.498-5.298L419.159.659c56.812 1.226 111.768 3.598 164.25 6.998" fill="#e6783f" class="C"/><path d="M891.935 206.603c0 95.371-252.035 172.686-562.935 172.686s-562.933-77.315-562.933-172.686S18.1 33.915 329 33.915s562.935 77.315 562.935 172.687" fill="#52a95a" class="C"/><g class="D C"><path d="M467.358 39.174l-24.466-1.721 392.425 244.709c15.218-9.579 27.637-19.651 36.923-30.122L467.358 39.174m-276.716 0l-404.88 212.866c9.283 10.471 21.703 20.543 36.922 30.122L215.108 37.453l-24.466 1.721m302.284 2.181l396.608 181.271c1.583-5.277 2.4-10.622 2.4-16.024 0-4.903-.678-9.757-1.983-14.556L522.953 44.439l-30.027-3.084m-357.879 3.084l-366.998 147.608c-1.305 4.799-1.982 9.653-1.982 14.556 0 5.402.817 10.747 2.399 16.024L165.074 41.355l-30.027 3.084m243.944-9.851l-20.528-.439 146.42 336.541c38.493-3.881 75.154-8.999 109.481-15.203l-235.373-320.9m11.454 343.682L339.073 33.946 329 33.915l-10.073.03-51.374 344.323c20.182.672 40.682 1.02 61.447 1.02s41.263-.348 61.445-1.02"/><path d="M420.95 36.21l-21.803-.965 305.715 299.911c28.108-7.739 53.665-16.332 76.233-25.646L420.95 36.21m-121.413-2.061l-20.528.439-235.373 320.9c34.327 6.204 70.988 11.321 109.481 15.203l146.42-336.542m-40.684 1.096l-21.803.965-360.144 273.3c22.569 9.314 48.125 17.907 76.233 25.646L258.853 35.245"/></g></g></g></svg>