<?xml version="1.0" encoding="UTF-8"?>
<svg width="4px" height="25px" viewBox="0 0 4 25" version="1.1" xmlns="http://www.w3.org/2000/svg" xmlns:xlink="http://www.w3.org/1999/xlink">
    <!-- Generator: Sketch 58 (84663) - https://sketch.com -->
    <title>circle-shape</title>
    <desc>Created with Sketch.</desc>
    <g id="Page-1" stroke="none" stroke-width="1" fill="none" fill-rule="evenodd">
        <path d="M0.500587885,18 C2.43358451,18 4.00058788,19.5670034 4.00058788,21.5 C4.00058788,23.4329966 2.43358451,25 0.500587885,25 C0.330498038,25 0.163241982,24.9878671 -0.000362029479,24.9644196 L-0.000362029479,18.0355804 C0.163241982,18.0121329 0.330498038,18 0.500587885,18 Z M0.500587885,9 C2.43358451,9 4.00058788,10.5670034 4.00058788,12.5 C4.00058788,14.4329966 2.43358451,16 0.500587885,16 C0.330498038,16 0.163241982,15.9878671 -0.000362029479,15.9644196 L-0.000362029479,9.03558044 C0.163241982,9.0121329 0.330498038,9 0.500587885,9 Z M0.500587885,0 C2.43358451,0 4.00058788,1.56700338 4.00058788,3.5 C4.00058788,5.43299662 2.43358451,7 0.500587885,7 C0.330498038,7 0.163241982,6.9878671 -0.000362029479,6.96441956 L-0.000362029479,0.0355804369 C0.163241982,0.0121328972 0.330498038,0 0.500587885,0 Z" id="circle-shape" fill="#FFFFFF"></path>
    </g>
</svg>