<?xml version="1.0" encoding="UTF-8"?>
<svg width="32px" height="30px" viewBox="0 0 32 30" version="1.1" xmlns="http://www.w3.org/2000/svg" xmlns:xlink="http://www.w3.org/1999/xlink">
    <!-- Generator: sketchtool 58 (101010) - https://sketch.com -->
    <title>392B4863-5E62-4A36-8E95-562841D273C0</title>
    <desc>Created with sketchtool.</desc>
    <g id="Page-1" stroke="none" stroke-width="1" fill="none" fill-rule="evenodd">
        <g id="8-FS-Leaderboard-with-multiple-currency" transform="translate(-320.000000, -183.000000)" fill="#CA8302" stroke="#00BFEB" stroke-width="2">
            <g id="3rd" transform="translate(322.000000, 184.000000)">
                <polygon id="Star2" points="14 26.0852865 10.8847069 27.6489908 8.75639072 24.8884669 5.27114277 24.9456408 4.55134257 21.5350529 1.38643585 20.0743723 2.21771691 16.6892292 0 14 2.21771691 11.3107708 1.38643585 7.92562765 4.55134257 6.46494714 5.27114277 3.05435925 8.75639072 3.11153314 10.8847069 0.351009229 14 1.91471354 17.1152931 0.351009229 19.2436093 3.11153314 22.7288572 3.05435925 23.4486574 6.46494714 26.6135642 7.92562765 25.7822831 11.3107708 28 14 25.7822831 16.6892292 26.6135642 20.0743723 23.4486574 21.5350529 22.7288572 24.9456408 19.2436093 24.8884669 17.1152931 27.6489908"></polygon>
            </g>
        </g>
    </g>
</svg>