<?xml version="1.0" encoding="UTF-8"?>
<svg width="32px" height="30px" viewBox="0 0 32 30" version="1.1" xmlns="http://www.w3.org/2000/svg" xmlns:xlink="http://www.w3.org/1999/xlink">
    <!-- Generator: sketchtool 58 (101010) - https://sketch.com -->
    <title>BFDAB78F-3CCC-4568-A834-5AC72396A06A</title>
    <desc>Created with sketchtool.</desc>
    <g id="Page-1" stroke="none" stroke-width="1" fill="none" fill-rule="evenodd">
        <g id="9-FS-Leaderboard-with-single-currency" transform="translate(-80.000000, -183.000000)" fill="#FFFFFF" stroke="#00BFEB" stroke-width="2">
            <polygon id="shape-1-ic" points="96 210.085286 92.8847069 211.648991 90.7563907 208.888467 87.2711428 208.945641 86.5513426 205.535053 83.3864358 204.074372 84.2177169 200.689229 82 198 84.2177169 195.310771 83.3864358 191.925628 86.5513426 190.464947 87.2711428 187.054359 90.7563907 187.111533 92.8847069 184.351009 96 185.914714 99.1152931 184.351009 101.243609 187.111533 104.728857 187.054359 105.448657 190.464947 108.613564 191.925628 107.782283 195.310771 110 198 107.782283 200.689229 108.613564 204.074372 105.448657 205.535053 104.728857 208.945641 101.243609 208.888467 99.1152931 211.648991"></polygon>
        </g>
    </g>
</svg>