<?xml version="1.0" encoding="UTF-8"?>
<svg width="36px" height="34px" viewBox="0 0 36 34" version="1.1" xmlns="http://www.w3.org/2000/svg" xmlns:xlink="http://www.w3.org/1999/xlink">
    <!-- Generator: sketchtool 58 (101010) - https://sketch.com -->
    <title>41130EBE-BAD6-4E7B-B0A0-9AA1B092CAFD</title>
    <desc>Created with sketchtool.</desc>
    <g id="Page-1" stroke="none" stroke-width="1" fill="none" fill-rule="evenodd">
        <g id="8-FS-Leaderboard-with-multiple-currency" transform="translate(-196.000000, -143.000000)" fill="#FFBF00" stroke="#00BEEA" stroke-width="2">
            <g id="1st" transform="translate(198.000000, 144.000000)">
                <polygon id="Star" points="16 29.811756 12.4396651 31.5988466 10.0073037 28.4439621 6.02416317 28.5093037 5.20153437 24.611489 1.58449811 22.9421398 2.53453361 19.0734048 0 16 2.53453361 12.9265952 1.58449811 9.05786017 5.20153437 7.38851102 6.02416317 3.49069628 10.0073037 3.55603788 12.4396651 0.401153405 16 2.18824405 19.5603349 0.401153405 21.9926963 3.55603788 25.9758368 3.49069628 26.7984656 7.38851102 30.4155019 9.05786017 29.4654664 12.9265952 32 16 29.4654664 19.0734048 30.4155019 22.9421398 26.7984656 24.611489 25.9758368 28.5093037 21.9926963 28.4439621 19.5603349 31.5988466"></polygon>
            </g>
        </g>
    </g>
</svg>